<?xml version="1.0" encoding="UTF-8"?>
<svg version="1.1" xmlns="http://www.w3.org/2000/svg" width="250" height="150">
<path d="M0 0 C0.75313477 0.14453613 1.50626953 0.28907227 2.28222656 0.43798828 C27.95601326 5.52430451 55.50697471 17.06349691 70.65234375 39.44140625 C75.84796544 47.7620229 78.57606592 54.82270141 78.5 64.6875 C78.49033203 66.00415649 78.49033203 66.00415649 78.48046875 67.34741211 C78.13630006 79.68427481 73.29538775 89.862255 65 99 C64.34 99 63.68 99 63 99 C63 99.66 63 100.32 63 101 C62.34 101 61.68 101 61 101 C61 101.66 61 102.32 61 103 C57.53846154 106 57.53846154 106 55 106 C55 106.66 55 107.32 55 108 C50.87199524 110.98286059 46.40992768 113.45952377 42 116 C40.97648438 116.60585937 39.95296875 117.21171875 38.8984375 117.8359375 C22.29324016 126.94201346 2.67112253 130.82332675 -16 133 C-17.63775391 133.19529297 -17.63775391 133.19529297 -19.30859375 133.39453125 C-22.20832758 133.68334936 -25.08898392 133.87053433 -28 134 C-29.55847656 134.07927734 -29.55847656 134.07927734 -31.1484375 134.16015625 C-66.2399878 135.06701654 -101.66861277 126.13660552 -129.55859375 104.41015625 C-130.03425781 103.94480469 -130.50992188 103.47945313 -131 103 C-131 102.34 -131 101.68 -131 101 C-131.66 101 -132.32 101 -133 101 C-133 100.34 -133 99.68 -133 99 C-133.66 99 -134.32 99 -135 99 C-135 98.34 -135 97.68 -135 97 C-135.66 97 -136.32 97 -137 97 C-138.42225228 95.04629039 -139.6926712 93.12583858 -140.9375 91.0625 C-141.297229 90.47218994 -141.65695801 89.88187988 -142.02758789 89.27368164 C-144.76082609 84.66654484 -146.71202906 80.18381691 -148 75 C-148.27070313 74.05640625 -148.27070313 74.05640625 -148.546875 73.09375 C-151.08227571 61.37845018 -147.66854229 49.86492331 -141.4375 39.9375 C-140.31530845 38.27545683 -139.17127403 36.62782632 -138 35 C-137.47535156 34.23816406 -136.95070312 33.47632813 -136.41015625 32.69140625 C-135.94480469 32.13324219 -135.47945312 31.57507812 -135 31 C-134.34 31 -133.68 31 -133 31 C-133 30.34 -133 29.68 -133 29 C-131.1015625 27.2734375 -131.1015625 27.2734375 -128.625 25.375 C-127.81289062 24.74335937 -127.00078125 24.11171875 -126.1640625 23.4609375 C-124 22 -124 22 -122 22 C-122 21.34 -122 20.68 -122 20 C-101.71690723 8.06702717 -81.40117787 1.05257107 -58 -2 C-57.32420898 -2.0942627 -56.64841797 -2.18852539 -55.95214844 -2.28564453 C-37.44316341 -4.64678616 -18.26814732 -3.56460934 0 0 Z " fill="#085592" transform="translate(162,11)"/>
<path d="M0 0 C0.33 0 0.66 0 1 0 C1.33910994 2.04071515 1.67102704 4.08262621 2 6.125 C2.185625 7.26195312 2.37125 8.39890625 2.5625 9.5703125 C2.96956049 12.76137602 3.07809902 15.78817791 3 19 C5.45838232 19.77249563 7.91987974 20.52317733 10.39453125 21.2421875 C12.3762748 21.81858667 14.34725503 22.43213841 16.3125 23.0625 C18.98573115 23.29484688 18.98573115 23.29484688 20.40234375 21.71875 C21.65069896 20.18453954 22.82891645 18.59397483 24 17 C24.66 17 25.32 17 26 17 C26 16.34 26 15.68 26 15 C26.99 15.495 26.99 15.495 28 16 C27.505 17.485 27.505 17.485 27 19 C27.42410156 18.48308594 27.84820312 17.96617188 28.28515625 17.43359375 C30.08993387 15.40668965 31.83945331 13.64491326 34 12 C40.14169115 11.64567166 46.31443238 14.78951711 52 17 C51.67 18.32 51.34 19.64 51 21 C52.11375 20.319375 53.2275 19.63875 54.375 18.9375 C56.2734375 17.77734375 56.2734375 17.77734375 58 17 C58.66 17.33 59.32 17.66 60 18 C59.53102295 18.34780518 59.0620459 18.69561035 58.57885742 19.05395508 C56.44650114 20.63759169 54.31698227 22.22500118 52.1875 23.8125 C51.44951172 24.35970703 50.71152344 24.90691406 49.95117188 25.47070312 C49.23896484 26.00244141 48.52675781 26.53417969 47.79296875 27.08203125 C47.1383667 27.56905518 46.48376465 28.0560791 45.80932617 28.55786133 C44.07479367 29.94038507 42.53355413 31.40004028 41 33 C41.98226562 33.23783203 41.98226562 33.23783203 42.984375 33.48046875 C50.30077173 35.35090351 57.09697774 37.9520687 64 41 C63.04270084 42.12588014 62.08412105 43.2506715 61.125 44.375 C60.59132812 45.00148437 60.05765625 45.62796875 59.5078125 46.2734375 C58.38567993 47.55836651 57.20628025 48.79371975 56 50 C66.56 50.66 77.12 51.32 88 52 C88 52.33 88 52.66 88 53 C78.65741704 54.12998844 69.39146903 54.09908936 60 54 C60 54.99 60 55.98 60 57 C57.1875 57.6875 57.1875 57.6875 54 58 C53.53102295 57.51748779 53.0620459 57.03497559 52.57885742 56.5378418 C51.11033489 54.81358035 51.11033489 54.81358035 48.9152832 54.65942383 C47.74485474 54.6829895 47.74485474 54.6829895 46.55078125 54.70703125 C45.70322266 54.71669922 44.85566406 54.72636719 43.98242188 54.73632812 C43.10134766 54.76146484 42.22027344 54.78660156 41.3125 54.8125 C40.41982422 54.82603516 39.52714844 54.83957031 38.60742188 54.85351562 C36.40433834 54.88885921 34.20247418 54.93819507 32 55 C32.79638672 53.03808594 32.79638672 53.03808594 34 51 C37.2578125 50.390625 37.2578125 50.390625 41.125 50.25 C42.40632812 50.19328125 43.68765625 50.1365625 45.0078125 50.078125 C45.99523437 50.05234375 46.98265625 50.0265625 48 50 C44.04 48.68 40.08 47.36 36 46 C35.38125 46.99 34.7625 47.98 34.125 49 C33.073125 50.485 33.073125 50.485 32 52 C31.34 52 30.68 52 30 52 C30.495 54.475 30.495 54.475 31 57 C37.78743178 59.81552726 43.68889006 60.3689719 51 60 C50.34 61.32 49.68 62.64 49 64 C49.639375 64.103125 50.27875 64.20625 50.9375 64.3125 C55.06477326 65.23903073 59.00642949 66.61660629 63 68 C63 68.33 63 68.66 63 69 C57.08739655 69.25706972 51.76081841 68.2982126 46 67 C45.67 67.99 45.34 68.98 45 70 C42.525 70.495 42.525 70.495 40 71 C42.31 71 44.62 71 47 71 C47 71.33 47 71.66 47 72 C44.525 72.495 44.525 72.495 42 73 C43.29739277 76.89217831 44.8343979 77.36906577 48.3125 79.4375 C52.03001565 81.65609746 55.05400386 83.81608494 58 87 C51.82975039 85.20609356 46.412117 82.18208287 40.80859375 79.1015625 C33.93184836 75.5055734 28.63833808 75.09041548 21 77 C21.44472656 77.69867188 21.88945312 78.39734375 22.34765625 79.1171875 C22.91355469 80.02726562 23.47945313 80.93734375 24.0625 81.875 C24.63097656 82.77992187 25.19945312 83.68484375 25.78515625 84.6171875 C26.18605469 85.40351562 26.58695312 86.18984375 27 87 C26.67 87.66 26.34 88.32 26 89 C25.33355469 88.21753906 24.66710937 87.43507813 23.98046875 86.62890625 C17.71493637 79.45001328 17.71493637 79.45001328 8.8125 76.8125 C7.20715551 76.82372619 5.59985967 76.86693624 4 77 C3.96261719 77.59683594 3.92523438 78.19367188 3.88671875 78.80859375 C3.2163411 87.65494984 1.62359432 96.28977389 0 105 C-0.33 105 -0.66 105 -1 105 C-1.50828443 101.64703509 -2.00511457 98.29246657 -2.5 94.9375 C-2.64308594 93.99455078 -2.78617187 93.05160156 -2.93359375 92.08007812 C-3.67809139 86.99267758 -4.17113566 82.1412006 -4 77 C-11.34484039 78.65258909 -16.01778984 83.73583514 -20.86328125 89.19921875 C-28.56016674 97.72716535 -28.56016674 97.72716535 -32.453125 98.46484375 C-34.90434643 97.95488684 -36.77962728 97.15395715 -39 96 C-39.84304687 95.64679688 -40.68609375 95.29359375 -41.5546875 94.9296875 C-43.73743555 94.01170935 -45.87163828 93.03650713 -48 92 C-36.57142857 78.28571429 -36.57142857 78.28571429 -32 76 C-38.0495687 76.45470614 -42.56638513 79.22943431 -47.75 82.125 C-49.44911216 83.07233757 -51.15206172 84.01283623 -52.859375 84.9453125 C-53.60670898 85.36312988 -54.35404297 85.78094727 -55.12402344 86.21142578 C-55.7430957 86.47165527 -56.36216797 86.73188477 -57 87 C-57.66 86.67 -58.32 86.34 -59 86 C-58.52054932 85.67725098 -58.04109863 85.35450195 -57.54711914 85.02197266 C-55.38239901 83.56096388 -53.22242457 82.09308807 -51.0625 80.625 C-50.30775391 80.11710937 -49.55300781 79.60921875 -48.77539062 79.0859375 C-48.05673828 78.59609375 -47.33808594 78.10625 -46.59765625 77.6015625 C-45.93258057 77.15119629 -45.26750488 76.70083008 -44.58227539 76.23681641 C-42.85607103 75.06986775 -42.85607103 75.06986775 -42 73 C-44.31 72.67 -46.62 72.34 -49 72 C-49 71.67 -49 71.34 -49 71 C-46.03 71 -43.06 71 -40 71 C-41.11375 70.773125 -42.2275 70.54625 -43.375 70.3125 C-44.57125 69.879375 -45.7675 69.44625 -47 69 C-47.71247732 67.3523962 -48.37400383 65.68236471 -49 64 C-52.51519612 60.77081722 -56.47270377 58.50909874 -61 57 C-61 56.01 -61 55.02 -61 54 C-69.91 53.67 -78.82 53.34 -88 53 C-88 52.67 -88 52.34 -88 52 C-82.48291932 50.88909722 -77.02775718 50.72209862 -71.421875 50.53515625 C-69.35415412 50.45671014 -67.28644612 50.3779241 -65.21875 50.29882812 C-61.97082155 50.17870805 -58.72285845 50.06157141 -55.47460938 49.95043945 C-52.33165411 49.84126959 -49.18932826 49.72032509 -46.046875 49.59765625 C-45.06982605 49.56736832 -44.0927771 49.53708038 -43.08612061 49.50587463 C-41.73396454 49.45088051 -41.73396454 49.45088051 -40.35449219 49.39477539 C-39.16252228 49.35266685 -39.16252228 49.35266685 -37.94647217 49.30970764 C-35.76673127 49.15820509 -35.76673127 49.15820509 -34 47 C-30.375 47.375 -30.375 47.375 -27 48 C-27 48.99 -27 49.98 -27 51 C-29.475 51.495 -29.475 51.495 -32 52 C-32 52.99 -32 53.98 -32 55 C-34.75006608 55.0270203 -37.49986546 55.04684883 -40.25 55.0625 C-41.02730469 55.07087891 -41.80460937 55.07925781 -42.60546875 55.08789062 C-43.73662109 55.09272461 -43.73662109 55.09272461 -44.890625 55.09765625 C-45.92751465 55.10551147 -45.92751465 55.10551147 -46.98535156 55.11352539 C-49.09973898 54.99437971 -50.96641515 54.57618237 -53 54 C-52.505 56.475 -52.505 56.475 -52 59 C-46.15478241 61.43550733 -40.24719355 61.67726675 -34 62 C-32.98292969 62.05414063 -31.96585938 62.10828125 -30.91796875 62.1640625 C-29.95503906 62.19242188 -28.99210937 62.22078125 -28 62.25 C-27.13375 62.27578125 -26.2675 62.3015625 -25.375 62.328125 C-22.48346906 61.92863717 -21.24113841 60.81139435 -19 59 C-17.906875 58.7525 -16.81375 58.505 -15.6875 58.25 C-10.93637297 56.63944847 -7.99056133 54.00431094 -5 50 C-4.28111914 47.87032135 -4.28111914 47.87032135 -4 46 C-2.88625 45.9071875 -2.88625 45.9071875 -1.75 45.8125 C1.82078812 44.75749442 2.81700114 42.92465873 5 40 C-6.62266563 40.31057189 -6.62266563 40.31057189 -17 45 C-18.02323436 46.31558703 -19.03126968 47.64377755 -20 49 C-21.32 49 -22.64 49 -24 49 C-24 48.34 -24 47.68 -24 47 C-26.95696534 46.13506811 -28.69354042 46.03887714 -31.90234375 46.21875 C-38.53465 46.29487403 -44.4179733 43.76466784 -50.5625 41.5 C-51.76197266 41.07074219 -52.96144531 40.64148438 -54.19726562 40.19921875 C-57.13631382 39.14537677 -60.07003149 38.07877417 -63 37 C-59.27408492 35.75802831 -56.54818865 36.46000972 -52.8125 37.21484375 C-52.11358643 37.34943497 -51.41467285 37.48402618 -50.69458008 37.62269592 C-48.46160011 38.05384467 -46.23078358 38.49513975 -44 38.9375 C-41.76893555 39.37462906 -39.53748327 39.80959271 -37.30541992 40.24159241 C-35.91690513 40.51088225 -34.52901594 40.78342267 -33.1418457 41.05955505 C-30.36784415 41.60204704 -27.83561435 42 -25 42 C-25.5983667 41.59273682 -26.1967334 41.18547363 -26.81323242 40.76586914 C-37.90272769 33.21632223 -48.990116 25.66537207 -60 18 C-59.34 17.67 -58.68 17.34 -58 17 C-55.5324707 18.06054688 -55.5324707 18.06054688 -52.42578125 19.71875 C-51.28923096 20.31864746 -50.15268066 20.91854492 -48.98168945 21.53662109 C-48.38152008 21.85781921 -47.78135071 22.17901733 -47.16299438 22.50994873 C-44.09644961 24.15061112 -41.01683516 25.76631986 -37.9375 27.3828125 C-37.33476761 27.69989166 -36.73203522 28.01697083 -36.11103821 28.34365845 C-29.51349611 31.80230746 -22.80328088 34.96872242 -16 38 C-16.33845947 37.40461426 -16.67691895 36.80922852 -17.02563477 36.19580078 C-18.5462464 33.51014733 -20.05448828 30.81774688 -21.5625 28.125 C-22.09552734 27.18785156 -22.62855469 26.25070313 -23.17773438 25.28515625 C-23.92700195 23.94130859 -23.92700195 23.94130859 -24.69140625 22.5703125 C-25.15748291 21.74289551 -25.62355957 20.91547852 -26.10375977 20.06298828 C-26.54739868 19.04180908 -26.54739868 19.04180908 -27 18 C-26.67 17.34 -26.34 16.68 -26 16 C-21.05 20.95 -21.05 20.95 -16 26 C-11.21618552 21.98063844 -11.21618552 21.98063844 -6.75 17.625 C-5 16 -5 16 -2 16 C-1.93941406 15.09636719 -1.87882812 14.19273438 -1.81640625 13.26171875 C-1.73261719 12.08222656 -1.64882812 10.90273438 -1.5625 9.6875 C-1.44068359 7.92986328 -1.44068359 7.92986328 -1.31640625 6.13671875 C-1 3 -1 3 0 0 Z " fill="#AD9A5F" transform="translate(127,24)"/>
<path d="M0 0 C0.75313477 0.14453613 1.50626953 0.28907227 2.28222656 0.43798828 C27.95601326 5.52430451 55.50697471 17.06349691 70.65234375 39.44140625 C75.84796544 47.7620229 78.57606592 54.82270141 78.5 64.6875 C78.49033203 66.00415649 78.49033203 66.00415649 78.48046875 67.34741211 C78.13630006 79.68427481 73.29538775 89.862255 65 99 C64.34 99 63.68 99 63 99 C63 99.66 63 100.32 63 101 C62.34 101 61.68 101 61 101 C61 101.66 61 102.32 61 103 C57.53846154 106 57.53846154 106 55 106 C55 106.66 55 107.32 55 108 C50.87199524 110.98286059 46.40992768 113.45952377 42 116 C40.97648438 116.60585937 39.95296875 117.21171875 38.8984375 117.8359375 C22.29324016 126.94201346 2.67112253 130.82332675 -16 133 C-17.63775391 133.19529297 -17.63775391 133.19529297 -19.30859375 133.39453125 C-22.20832758 133.68334936 -25.08898392 133.87053433 -28 134 C-29.55847656 134.07927734 -29.55847656 134.07927734 -31.1484375 134.16015625 C-66.2399878 135.06701654 -101.66861277 126.13660552 -129.55859375 104.41015625 C-130.03425781 103.94480469 -130.50992188 103.47945313 -131 103 C-131 102.34 -131 101.68 -131 101 C-131.66 101 -132.32 101 -133 101 C-133 100.34 -133 99.68 -133 99 C-133.66 99 -134.32 99 -135 99 C-135 98.34 -135 97.68 -135 97 C-135.66 97 -136.32 97 -137 97 C-138.42225228 95.04629039 -139.6926712 93.12583858 -140.9375 91.0625 C-141.297229 90.47218994 -141.65695801 89.88187988 -142.02758789 89.27368164 C-144.76082609 84.66654484 -146.71202906 80.18381691 -148 75 C-148.27070313 74.05640625 -148.27070313 74.05640625 -148.546875 73.09375 C-151.08227571 61.37845018 -147.66854229 49.86492331 -141.4375 39.9375 C-140.31530845 38.27545683 -139.17127403 36.62782632 -138 35 C-137.47535156 34.23816406 -136.95070312 33.47632813 -136.41015625 32.69140625 C-135.94480469 32.13324219 -135.47945312 31.57507812 -135 31 C-134.34 31 -133.68 31 -133 31 C-133 30.34 -133 29.68 -133 29 C-131.1015625 27.2734375 -131.1015625 27.2734375 -128.625 25.375 C-127.81289062 24.74335937 -127.00078125 24.11171875 -126.1640625 23.4609375 C-124 22 -124 22 -122 22 C-122 21.34 -122 20.68 -122 20 C-101.71690723 8.06702717 -81.40117787 1.05257107 -58 -2 C-57.32420898 -2.0942627 -56.64841797 -2.18852539 -55.95214844 -2.28564453 C-37.44316341 -4.64678616 -18.26814732 -3.56460934 0 0 Z M-125.32421875 37.109375 C-127.8384043 39.94589204 -130.07926506 42.72586464 -132 46 C-132.39316406 46.66902344 -132.78632813 47.33804688 -133.19140625 48.02734375 C-137.55760144 56.9270796 -137.53481392 68.06974026 -135.08203125 77.546875 C-132.66100248 83.72089013 -129.3782613 89.03657728 -125 94 C-124.44957031 94.64324219 -123.89914063 95.28648438 -123.33203125 95.94921875 C-111.25740495 109.05366392 -93.7974612 116.63446662 -76.9375 121.3125 C-75.62749023 121.67637817 -75.62749023 121.67637817 -74.29101562 122.04760742 C-61.475842 125.40198623 -48.6915345 126.413389 -35.5 126.375 C-34.38765488 126.37368576 -34.38765488 126.37368576 -33.25283813 126.37234497 C-1.71986001 126.25010281 29.99524059 118.12651163 53.2421875 95.8515625 C62.68789124 85.97812878 66.55378468 75.33061399 66.26953125 61.88671875 C65.54560969 51.44755998 60.51774449 43.9206114 54 36 C53.21689453 35.04480469 53.21689453 35.04480469 52.41796875 34.0703125 C35.31218564 15.27560397 4.40784112 6.76631713 -20 5 C-57.93043782 3.5212745 -97.75442617 8.11257452 -125.32421875 37.109375 Z " fill="#CBD0D5" transform="translate(162,11)"/>
<path d="M0 0 C1.68560352 1.47868812 3.35381628 2.97754904 5 4.5 C5.72703125 5.14710937 6.4540625 5.79421875 7.203125 6.4609375 C17.12773785 15.74158692 22.84586558 26.45905373 23.45043945 40.01098633 C23.64931423 49.49721544 22.60378841 58.58156418 15.828125 65.8203125 C15.22484375 66.37460938 14.6215625 66.92890625 14 67.5 C13.34 67.17 12.68 66.84 12 66.5 C11.6278958 65.17696283 11.29369827 63.84262065 11 62.5 C10.67 62.17 10.34 61.84 10 61.5 C9.77242744 58.23812661 9.87990615 55.83512354 10.98828125 52.7421875 C13.66187847 44.17428906 12.87032634 34.33601381 9.3828125 26.1171875 C-1.50107662 5.51773634 -21.21392251 -4.88048109 -42.58447266 -11.77294922 C-80.08050793 -23.0588996 -123.14487523 -20.01840798 -157.85400391 -1.72021484 C-162.96398105 1.18532165 -167.46569378 4.7765159 -172 8.5 C-172.99 9.16 -173.98 9.82 -175 10.5 C-175 9.18 -175 7.86 -175 6.5 C-176.485 6.995 -176.485 6.995 -178 7.5 C-180.1875 6.0625 -180.1875 6.0625 -182 4.5 C-159.70772425 -12.49786026 -135.69183737 -20.98822901 -108 -24.5 C-107.25717773 -24.59716309 -106.51435547 -24.69432617 -105.74902344 -24.79443359 C-71.29135471 -29.0126581 -27.75984785 -22.30015478 0 0 Z " fill="#CCD1D6" transform="translate(215,34.5)"/>
<path d="M0 0 C0.33 0 0.66 0 1 0 C1.33910994 2.04071515 1.67102704 4.08262621 2 6.125 C2.185625 7.26195312 2.37125 8.39890625 2.5625 9.5703125 C2.96956049 12.76137602 3.07809902 15.78817791 3 19 C5.45838232 19.77249563 7.91987974 20.52317733 10.39453125 21.2421875 C12.3762748 21.81858667 14.34725503 22.43213841 16.3125 23.0625 C18.98573115 23.29484688 18.98573115 23.29484688 20.40234375 21.71875 C21.65069896 20.18453954 22.82891645 18.59397483 24 17 C24.66 17 25.32 17 26 17 C26 16.34 26 15.68 26 15 C26.99 15.495 26.99 15.495 28 16 C27.505 17.485 27.505 17.485 27 19 C27.42410156 18.48308594 27.84820312 17.96617188 28.28515625 17.43359375 C30.08993387 15.40668965 31.83945331 13.64491326 34 12 C40.14169115 11.64567166 46.31443238 14.78951711 52 17 C51.67 18.32 51.34 19.64 51 21 C52.11375 20.319375 53.2275 19.63875 54.375 18.9375 C56.2734375 17.77734375 56.2734375 17.77734375 58 17 C58.66 17.33 59.32 17.66 60 18 C59.53102295 18.34780518 59.0620459 18.69561035 58.57885742 19.05395508 C56.44650114 20.63759169 54.31698227 22.22500118 52.1875 23.8125 C51.44951172 24.35970703 50.71152344 24.90691406 49.95117188 25.47070312 C48.88286133 26.26831055 48.88286133 26.26831055 47.79296875 27.08203125 C47.1383667 27.56905518 46.48376465 28.0560791 45.80932617 28.55786133 C44.07479367 29.94038507 42.53355413 31.40004028 41 33 C41.98226562 33.23783203 41.98226562 33.23783203 42.984375 33.48046875 C50.30077173 35.35090351 57.09697774 37.9520687 64 41 C63.04270084 42.12588014 62.08412105 43.2506715 61.125 44.375 C60.59132813 45.00148437 60.05765625 45.62796875 59.5078125 46.2734375 C58.38567993 47.55836651 57.20628025 48.79371975 56 50 C66.56 50.66 77.12 51.32 88 52 C88 52.33 88 52.66 88 53 C78.65741704 54.12998844 69.39146903 54.09908936 60 54 C60 54.99 60 55.98 60 57 C57.1875 57.6875 57.1875 57.6875 54 58 C53.29653442 57.27623169 53.29653442 57.27623169 52.57885742 56.5378418 C51.11033489 54.81358035 51.11033489 54.81358035 48.9152832 54.65942383 C48.13499756 54.67513428 47.35471191 54.69084473 46.55078125 54.70703125 C45.70322266 54.71669922 44.85566406 54.72636719 43.98242188 54.73632812 C43.10134766 54.76146484 42.22027344 54.78660156 41.3125 54.8125 C40.41982422 54.82603516 39.52714844 54.83957031 38.60742188 54.85351562 C36.40433834 54.88885921 34.20247418 54.93819507 32 55 C32.79638672 53.03808594 32.79638672 53.03808594 34 51 C37.2578125 50.390625 37.2578125 50.390625 41.125 50.25 C42.40632813 50.19328125 43.68765625 50.1365625 45.0078125 50.078125 C45.99523437 50.05234375 46.98265625 50.0265625 48 50 C44.92608026 48.76668124 41.83981533 47.567875 38.75 46.375 C37.44095703 45.8490625 37.44095703 45.8490625 36.10546875 45.3125 C35.26113281 44.99023438 34.41679687 44.66796875 33.546875 44.3359375 C32.77182617 44.03220215 31.99677734 43.7284668 31.19824219 43.41552734 C28.37933571 42.88267763 27.36041098 43.42943641 25 45 C23.49664715 46.30960438 23.49664715 46.30960438 22.16015625 47.8203125 C21.65419922 48.35527344 21.14824219 48.89023438 20.62695312 49.44140625 C19.58188382 50.5660626 18.54281627 51.69632525 17.50976562 52.83203125 C13.61309402 56.92180348 13.61309402 56.92180348 10.12109375 57.3671875 C9.42113281 57.24601562 8.72117187 57.12484375 8 57 C10.1644654 52.19103592 13.60046639 48.91758953 17.25 45.1875 C17.90613281 44.48173828 18.56226563 43.77597656 19.23828125 43.04882812 C24.13202853 38.05292509 24.13202853 38.05292509 27.8828125 37.82421875 C28.91148437 38.21222656 29.94015625 38.60023437 31 39 C31.71994141 39.25837646 32.43988281 39.51675293 33.18164062 39.78295898 C36.54295842 41.00682863 39.86561786 42.32171018 43.1875 43.6484375 C44.00476563 43.96296875 44.82203125 44.2775 45.6640625 44.6015625 C46.40092285 44.89369629 47.1377832 45.18583008 47.89697266 45.48681641 C50.35131397 46.08572811 51.63000862 45.8036837 54 45 C54.99 44.67 55.98 44.34 57 44 C57 43.34 57 42.68 57 42 C55.82050781 41.86271484 55.82050781 41.86271484 54.6171875 41.72265625 C49.91077353 40.78238996 45.60241648 39.14013202 41.125 37.4375 C39.80628906 36.9434668 39.80628906 36.9434668 38.4609375 36.43945312 C36.30541947 35.63113386 34.15190559 34.81787706 32 34 C33.78200687 30.14972009 36.07675405 27.7200858 39.125 24.75 C40.49011719 23.41195312 40.49011719 23.41195312 41.8828125 22.046875 C42.93082031 21.03367187 42.93082031 21.03367187 44 20 C40.7009462 17.8006308 39.8256758 17.28268579 36 18 C33.26344378 20.47818455 30.88494353 23.05065467 28.4609375 25.82226562 C26.9375 27.47265625 26.9375 27.47265625 24 30 C21.71875 30.08984375 21.71875 30.08984375 19 29 C17.51053413 28.46842077 16.02093648 27.93721071 14.53125 27.40625 C12.00106981 26.45394596 9.47525955 25.49056605 6.94921875 24.52734375 C2.98970641 23.0370706 -0.79125303 21.62096267 -5 21 C-5 21.66 -5 22.32 -5 23 C-5.66 23 -6.32 23 -7 23 C-7 23.99 -7 24.98 -7 26 C-6.21367188 26.09152344 -5.42734375 26.18304688 -4.6171875 26.27734375 C0.08922647 27.21761004 4.39758352 28.85986798 8.875 30.5625 C9.75414062 30.89185547 10.63328125 31.22121094 11.5390625 31.56054688 C13.69458053 32.36886614 15.84809441 33.18212294 18 34 C16.02460645 38.35207553 13.21112502 40.97802277 9.75 44.1875 C8.90888672 45.00637695 8.90888672 45.00637695 8.05078125 45.84179688 C4.40405298 49.24007599 2.07704476 50.45132802 -3 51 C-4.38232443 52.62626404 -5.71937515 54.2925002 -7 56 C-9.1171875 56.65625 -9.1171875 56.65625 -11 57 C-10.57847656 56.45730469 -10.15695313 55.91460937 -9.72265625 55.35546875 C-8.90087891 54.28232422 -8.90087891 54.28232422 -8.0625 53.1875 C-7.24458984 52.12595703 -7.24458984 52.12595703 -6.41015625 51.04296875 C-4.83143752 48.95874948 -4.83143752 48.95874948 -4 46 C-3.2575 45.938125 -2.515 45.87625 -1.75 45.8125 C1.82078812 44.75749442 2.81700114 42.92465873 5 40 C-6.62266563 40.31057189 -6.62266563 40.31057189 -17 45 C-18.02323436 46.31558703 -19.03126968 47.64377755 -20 49 C-21.32 49 -22.64 49 -24 49 C-24 48.34 -24 47.68 -24 47 C-26.95696534 46.13506811 -28.69354042 46.03887714 -31.90234375 46.21875 C-38.53465 46.29487403 -44.4179733 43.76466784 -50.5625 41.5 C-51.76197266 41.07074219 -52.96144531 40.64148438 -54.19726562 40.19921875 C-57.13631382 39.14537677 -60.07003149 38.07877417 -63 37 C-59.27408492 35.75802831 -56.54818865 36.46000972 -52.8125 37.21484375 C-52.11358643 37.34943497 -51.41467285 37.48402618 -50.69458008 37.62269592 C-48.46160011 38.05384467 -46.23078358 38.49513975 -44 38.9375 C-41.76893555 39.37462906 -39.53748327 39.80959271 -37.30541992 40.24159241 C-35.91690513 40.51088225 -34.52901594 40.78342267 -33.1418457 41.05955505 C-30.36784415 41.60204704 -27.83561435 42 -25 42 C-25.5983667 41.59273682 -26.1967334 41.18547363 -26.81323242 40.76586914 C-37.90272769 33.21632223 -48.990116 25.66537207 -60 18 C-59.34 17.67 -58.68 17.34 -58 17 C-55.5324707 18.06054688 -55.5324707 18.06054688 -52.42578125 19.71875 C-51.28923096 20.31864746 -50.15268066 20.91854492 -48.98168945 21.53662109 C-48.38152008 21.85781921 -47.78135071 22.17901733 -47.16299438 22.50994873 C-44.09644961 24.15061112 -41.01683516 25.76631986 -37.9375 27.3828125 C-37.33476761 27.69989166 -36.73203522 28.01697083 -36.11103821 28.34365845 C-29.51349611 31.80230746 -22.80328088 34.96872242 -16 38 C-16.33845947 37.40461426 -16.67691895 36.80922852 -17.02563477 36.19580078 C-18.5462464 33.51014733 -20.05448828 30.81774688 -21.5625 28.125 C-22.09552734 27.18785156 -22.62855469 26.25070313 -23.17773438 25.28515625 C-23.92700195 23.94130859 -23.92700195 23.94130859 -24.69140625 22.5703125 C-25.15748291 21.74289551 -25.62355957 20.91547852 -26.10375977 20.06298828 C-26.54739868 19.04180908 -26.54739868 19.04180908 -27 18 C-26.67 17.34 -26.34 16.68 -26 16 C-22.7 19.3 -19.4 22.6 -16 26 C-11.21618552 21.98063844 -11.21618552 21.98063844 -6.75 17.625 C-5 16 -5 16 -2 16 C-1.90912109 14.64455078 -1.90912109 14.64455078 -1.81640625 13.26171875 C-1.73261719 12.08222656 -1.64882812 10.90273438 -1.5625 9.6875 C-1.48128906 8.51574219 -1.40007812 7.34398437 -1.31640625 6.13671875 C-1 3 -1 3 0 0 Z " fill="#D4CBCF" transform="translate(127,24)"/>
<path d="M0 0 C3.625 0.375 3.625 0.375 7 1 C7 1.99 7 2.98 7 4 C5.35 4.33 3.7 4.66 2 5 C2 5.99 2 6.98 2 8 C-0.75006608 8.0270203 -3.49986546 8.04684883 -6.25 8.0625 C-7.02730469 8.07087891 -7.80460937 8.07925781 -8.60546875 8.08789062 C-9.73662109 8.09272461 -9.73662109 8.09272461 -10.890625 8.09765625 C-11.92751465 8.10551147 -11.92751465 8.10551147 -12.98535156 8.11352539 C-15.09973898 7.99437971 -16.96641515 7.57618237 -19 7 C-18.505 9.475 -18.505 9.475 -18 12 C-9.58741505 15.50524373 0.02555457 15.14957409 9 15 C9 15.33 9 15.66 9 16 C7.98679687 16.19916016 7.98679687 16.19916016 6.953125 16.40234375 C6.06109375 16.57894531 5.1690625 16.75554687 4.25 16.9375 C3.36828125 17.11152344 2.4865625 17.28554687 1.578125 17.46484375 C-0.63235053 17.92368488 -2.81512068 18.43336074 -5 19 C-5 19.66 -5 20.32 -5 21 C-4.484375 21.12375 -3.96875 21.2475 -3.4375 21.375 C-1.38612491 21.90099361 0.65255201 22.47615905 2.6875 23.0625 C5.58659937 24.04538708 5.58659937 24.04538708 7 24 C6.01 23.34 5.02 22.68 4 22 C13.38245536 20.79639209 22.68532519 20.88696437 32.125 20.9375 C33.76562363 20.94252563 35.40624876 20.94708665 37.046875 20.95117188 C41.03128742 20.96209195 45.0156269 20.97929782 49 21 C49 21.33 49 21.66 49 22 C50.60681641 21.98259766 50.60681641 21.98259766 52.24609375 21.96484375 C53.64322743 21.95546701 55.04036299 21.94636669 56.4375 21.9375 C57.14455078 21.92912109 57.85160156 21.92074219 58.58007812 21.91210938 C60.38693559 21.90346412 62.19387603 21.94779989 64 22 C64.33 22.33 64.66 22.66 65 23 C66.32 23 67.64 23 69 23 C70.32 23 71.64 23 73 23 C73.33 23.33 73.66 23.66 74 24 C76.33297433 24.04092937 78.66705225 24.04241723 81 24 C81 24.33 81 24.66 81 25 C79.35 25.33 77.7 25.66 76 26 C77.29739277 29.89217831 78.8343979 30.36906577 82.3125 32.4375 C86.03001565 34.65609746 89.05400386 36.81608494 92 40 C85.82975039 38.20609356 80.412117 35.18208287 74.80859375 32.1015625 C67.93184836 28.5055734 62.63833808 28.09041548 55 30 C55.44472656 30.69867188 55.88945312 31.39734375 56.34765625 32.1171875 C56.91355469 33.02726562 57.47945313 33.93734375 58.0625 34.875 C58.63097656 35.77992187 59.19945312 36.68484375 59.78515625 37.6171875 C60.18605469 38.40351562 60.58695312 39.18984375 61 40 C60.505 40.99 60.505 40.99 60 42 C59.33355469 41.21753906 58.66710937 40.43507812 57.98046875 39.62890625 C51.71493637 32.45001328 51.71493637 32.45001328 42.8125 29.8125 C41.20715551 29.82372619 39.59985967 29.86693624 38 30 C37.96261719 30.59683594 37.92523438 31.19367188 37.88671875 31.80859375 C37.2163411 40.65494984 35.62359432 49.28977389 34 58 C33.67 58 33.34 58 33 58 C32.49171557 54.64703509 31.99488543 51.29246657 31.5 47.9375 C31.35691406 46.99455078 31.21382813 46.05160156 31.06640625 45.08007812 C30.32190861 39.99267758 29.82886434 35.1412006 30 30 C22.65515961 31.65258909 17.98221016 36.73583514 13.13671875 42.19921875 C5.43983326 50.72716535 5.43983326 50.72716535 1.546875 51.46484375 C-0.90434643 50.95488684 -2.77962728 50.15395715 -5 49 C-6.26457031 48.47019531 -6.26457031 48.47019531 -7.5546875 47.9296875 C-9.73743555 47.01170935 -11.87163828 46.03650713 -14 45 C-2.57142857 31.28571429 -2.57142857 31.28571429 2 29 C-4.0495687 29.45470614 -8.56638513 32.22943431 -13.75 35.125 C-15.44911216 36.07233757 -17.15206172 37.01283623 -18.859375 37.9453125 C-19.60670898 38.36312988 -20.35404297 38.78094727 -21.12402344 39.21142578 C-22.05263184 39.60177002 -22.05263184 39.60177002 -23 40 C-23.66 39.67 -24.32 39.34 -25 39 C-24.52054932 38.67725098 -24.04109863 38.35450195 -23.54711914 38.02197266 C-21.38239901 36.56096388 -19.22242457 35.09308807 -17.0625 33.625 C-16.30775391 33.11710937 -15.55300781 32.60921875 -14.77539062 32.0859375 C-14.05673828 31.59609375 -13.33808594 31.10625 -12.59765625 30.6015625 C-11.93258057 30.15119629 -11.26750488 29.70083008 -10.58227539 29.23681641 C-8.85607103 28.06986775 -8.85607103 28.06986775 -8 26 C-10.31 25.67 -12.62 25.34 -15 25 C-15 24.67 -15 24.34 -15 24 C-12.03 24 -9.06 24 -6 24 C-7.11375 23.773125 -8.2275 23.54625 -9.375 23.3125 C-11.169375 22.6628125 -11.169375 22.6628125 -13 22 C-13.71247732 20.3523962 -14.37400383 18.68236471 -15 17 C-18.51519612 13.77081722 -22.47270377 11.50909874 -27 10 C-27 9.01 -27 8.02 -27 7 C-35.91 6.67 -44.82 6.34 -54 6 C-54 5.67 -54 5.34 -54 5 C-48.48291932 3.88909722 -43.02775718 3.72209862 -37.421875 3.53515625 C-35.35415412 3.45671014 -33.28644612 3.3779241 -31.21875 3.29882812 C-27.97082155 3.17870805 -24.72285845 3.06157141 -21.47460938 2.95043945 C-18.33165411 2.84126959 -15.18932826 2.72032509 -12.046875 2.59765625 C-11.06982605 2.56736832 -10.0927771 2.53708038 -9.08612061 2.50587463 C-7.73396454 2.45088051 -7.73396454 2.45088051 -6.35449219 2.39477539 C-5.16252228 2.35266685 -5.16252228 2.35266685 -3.94647217 2.30970764 C-1.76673127 2.15820509 -1.76673127 2.15820509 0 0 Z " fill="#F4FAFB" transform="translate(93,71)"/>
<path d="M0 0 C0.75313477 0.14453613 1.50626953 0.28907227 2.28222656 0.43798828 C27.95601326 5.52430451 55.50697471 17.06349691 70.65234375 39.44140625 C75.84796544 47.7620229 78.57606592 54.82270141 78.5 64.6875 C78.49033203 66.00415649 78.49033203 66.00415649 78.48046875 67.34741211 C78.13630006 79.68427481 73.29538775 89.862255 65 99 C64.34 99 63.68 99 63 99 C63 99.66 63 100.32 63 101 C62.34 101 61.68 101 61 101 C61 101.66 61 102.32 61 103 C57.53846154 106 57.53846154 106 55 106 C55 106.66 55 107.32 55 108 C50.87199524 110.98286059 46.40992768 113.45952377 42 116 C40.97648438 116.60585937 39.95296875 117.21171875 38.8984375 117.8359375 C25.07859003 125.41456353 6.84476209 131.31068161 -9 131 C-9 130.67 -9 130.34 -9 130 C-7.87207031 129.79246094 -6.74414062 129.58492187 -5.58203125 129.37109375 C20.60334396 124.33674419 50.92376879 115.14695873 67 92 C74.34109951 79.36883124 77.76182321 66.06208126 73.9375 51.5625 C67.068173 33.02167759 50.77269059 21.16709504 33.55078125 12.98828125 C-3.52647978 -3.75919704 -46.1716619 -5.34848404 -85 6 C-86.01707031 6.28488281 -87.03414062 6.56976563 -88.08203125 6.86328125 C-108.33086679 13.01654185 -128.77601812 24.67708941 -140 43 C-145.39380343 54.05462684 -148.17463936 64.80903382 -144.9375 77.0625 C-137.52465098 98.17374743 -120.34143759 109.75066518 -101.1328125 119.00390625 C-100.42898437 119.33261719 -99.72515625 119.66132813 -99 120 C-103.10563728 121.36854576 -104.41598274 120.15825517 -108.25 118.25 C-113.96564564 115.35718654 -119.20133504 111.95897994 -124.375 108.1875 C-125.03532227 107.70764648 -125.69564453 107.22779297 -126.37597656 106.73339844 C-127.96008175 105.5438442 -129.48651338 104.27819668 -131 103 C-131 102.34 -131 101.68 -131 101 C-131.66 101 -132.32 101 -133 101 C-133 100.34 -133 99.68 -133 99 C-133.66 99 -134.32 99 -135 99 C-135 98.34 -135 97.68 -135 97 C-135.66 97 -136.32 97 -137 97 C-138.42225228 95.04629039 -139.6926712 93.12583858 -140.9375 91.0625 C-141.297229 90.47218994 -141.65695801 89.88187988 -142.02758789 89.27368164 C-144.76082609 84.66654484 -146.71202906 80.18381691 -148 75 C-148.27070313 74.05640625 -148.27070313 74.05640625 -148.546875 73.09375 C-151.08227571 61.37845018 -147.66854229 49.86492331 -141.4375 39.9375 C-140.31530845 38.27545683 -139.17127403 36.62782632 -138 35 C-137.47535156 34.23816406 -136.95070312 33.47632813 -136.41015625 32.69140625 C-135.94480469 32.13324219 -135.47945312 31.57507812 -135 31 C-134.34 31 -133.68 31 -133 31 C-133 30.34 -133 29.68 -133 29 C-131.1015625 27.2734375 -131.1015625 27.2734375 -128.625 25.375 C-127.81289062 24.74335937 -127.00078125 24.11171875 -126.1640625 23.4609375 C-124 22 -124 22 -122 22 C-122 21.34 -122 20.68 -122 20 C-101.71690723 8.06702717 -81.40117787 1.05257107 -58 -2 C-57.32420898 -2.0942627 -56.64841797 -2.18852539 -55.95214844 -2.28564453 C-37.44316341 -4.64678616 -18.26814732 -3.56460934 0 0 Z " fill="#1E4B7B" transform="translate(162,11)"/>
<path d="M0 0 C0.433125 0.928125 0.433125 0.928125 0.875 1.875 C1.93720042 4.13325765 1.93720042 4.13325765 4 6 C3.67 6.99 3.34 7.98 3 9 C3.99 9.33 4.98 9.66 6 10 C-8.80885392 32.09288369 -35.01068839 42.27824506 -60 48 C-63.68351397 48.58100787 -67.2712505 48.98253513 -71 49 C-71 49.66 -71 50.32 -71 51 C-87.230035 52.95668883 -102.41237938 53.42666976 -118.6875 51.625 C-119.83549072 51.49907471 -120.98348145 51.37314941 -122.16625977 51.2434082 C-123.24963623 51.11409912 -124.3330127 50.98479004 -125.44921875 50.8515625 C-126.42205811 50.73635254 -127.39489746 50.62114258 -128.3972168 50.50244141 C-130.92864903 50.0137736 -132.77413801 49.27483279 -135 48 C-133.1873655 48.14415198 -131.37489978 48.29042636 -129.5625 48.4375 C-128.55316406 48.51871094 -127.54382813 48.59992188 -126.50390625 48.68359375 C-124.67883437 48.84839957 -122.85355404 49.01835238 -121.03527832 49.24621582 C-115.38394656 49.95291452 -109.84329824 50.13219712 -104.15234375 50.09765625 C-102.80638878 50.09553383 -102.80638878 50.09553383 -101.4332428 50.09336853 C-98.60129286 50.0878251 -95.76942555 50.07528358 -92.9375 50.0625 C-91.00325636 50.05747767 -89.06901147 50.05291606 -87.13476562 50.04882812 C-82.42314583 50.03787429 -77.71158687 50.02064953 -73 50 C-73.33 49.01 -73.66 48.02 -74 47 C-73.34 46.01 -72.68 45.02 -72 44 C-72.99 43.505 -72.99 43.505 -74 43 C-72.77667969 42.79246094 -71.55335938 42.58492187 -70.29296875 42.37109375 C-45.71784303 37.97064335 -19.24833794 29.17364317 -4 8 C-2.48726247 5.3752203 -1.23768833 2.77242185 0 0 Z " fill="#CBD1D6" transform="translate(224,92)"/>
<path d="M0 0 C3.26953125 0.9609375 3.26953125 0.9609375 5.26953125 2.9609375 C4.41488281 3.80398437 3.56023437 4.64703125 2.6796875 5.515625 C1.56367078 6.62226343 0.44779253 7.72904152 -0.66796875 8.8359375 C-1.23193359 9.39152344 -1.79589844 9.94710937 -2.37695312 10.51953125 C-5.42906903 13.4530946 -5.42906903 13.4530946 -7.73046875 16.9609375 C-7.00577393 17.09234131 -6.2810791 17.22374512 -5.53442383 17.35913086 C-2.87474348 17.92997214 -0.42844616 18.68101003 2.1328125 19.58984375 C3.01904297 19.90244141 3.90527344 20.21503906 4.81835938 20.53710938 C5.73037109 20.86259766 6.64238281 21.18808594 7.58203125 21.5234375 C8.51337891 21.85279297 9.44472656 22.18214844 10.40429688 22.52148438 C12.69379848 23.33161571 14.98214583 24.14485433 17.26953125 24.9609375 C17.26953125 26.9609375 17.26953125 26.9609375 15.83203125 28.7109375 C11.75064693 30.70185668 8.36916443 29.33688041 4.26953125 27.9609375 C1.0157256 26.67247635 -2.22009272 25.33875205 -5.41333008 23.90649414 C-9.36105322 22.21003315 -11.63235771 21.69398851 -15.73046875 22.9609375 C-17.72127786 24.39115506 -17.72127786 24.39115506 -19.46484375 26.26953125 C-20.12097656 26.93404297 -20.77710938 27.59855469 -21.453125 28.28320312 C-22.12214844 28.98123047 -22.79117188 29.67925781 -23.48046875 30.3984375 C-24.16496094 31.09259766 -24.84945312 31.78675781 -25.5546875 32.50195312 C-29.05847338 35.92480027 -29.05847338 35.92480027 -31.73046875 39.9609375 C-33.38046875 39.3009375 -35.03046875 38.6409375 -36.73046875 37.9609375 C-37.1640625 35.3828125 -37.1640625 35.3828125 -36.73046875 31.9609375 C-34.72615837 29.3609959 -32.29297445 27.32464495 -29.79296875 25.2109375 C-28.49026716 24.0725062 -27.1893935 22.93197878 -25.890625 21.7890625 C-25.30933838 21.2930957 -24.72805176 20.79712891 -24.12915039 20.28613281 C-22.60354772 18.99184342 -22.60354772 18.99184342 -21.73046875 16.9609375 C-23.46296875 16.6515625 -23.46296875 16.6515625 -25.23046875 16.3359375 C-32.65056324 14.71614159 -39.67355107 11.71443421 -46.73046875 8.9609375 C-46.73046875 7.9709375 -46.73046875 6.9809375 -46.73046875 5.9609375 C-46.07046875 5.9609375 -45.41046875 5.9609375 -44.73046875 5.9609375 C-44.73046875 5.3009375 -44.73046875 4.6409375 -44.73046875 3.9609375 C-37.81147392 4.61455375 -31.90534442 7.03506788 -25.49414062 9.609375 C-24.68138672 9.92390625 -23.86863281 10.2384375 -23.03125 10.5625 C-21.93550659 11.00070068 -21.93550659 11.00070068 -20.81762695 11.44775391 C-18.34878606 12.05478439 -17.08487326 11.89005168 -14.73046875 10.9609375 C-12.38911484 8.63034019 -10.19493081 6.25264094 -8.06054688 3.734375 C-5.2780912 0.71184889 -4.18410384 -0.04381261 0 0 Z " fill="#DF2526" transform="translate(166.73046875,41.0390625)"/>
<path d="M0 0 C1.08518111 0.91447846 2.16804738 1.83170407 3.25 2.75 C3.85328125 3.26046875 4.4565625 3.7709375 5.078125 4.296875 C7 6 7 6 8.7878418 7.97924805 C11.26187934 10.23922032 13.14120333 11.02052061 16.31640625 12.03515625 C17.32767578 12.36966797 18.33894531 12.70417969 19.38085938 13.04882812 C20.43080078 13.38333984 21.48074219 13.71785156 22.5625 14.0625 C24.64977324 14.73272535 26.73454986 15.41078978 28.81640625 16.09765625 C29.73881104 16.39164307 30.66121582 16.68562988 31.61157227 16.98852539 C34.03178681 18.01346139 35.31148484 19.01703752 37 21 C32.96117773 23.86748775 30.09781719 24.34546539 25.1875 24.4375 C18.99580239 24.76201245 15.17109712 25.58512454 10 29 C8.97676564 30.31558703 7.96873032 31.64377755 7 33 C5.68 33 4.36 33 3 33 C3 32.34 3 31.68 3 31 C0.04303466 30.13506811 -1.69354042 30.03887714 -4.90234375 30.21875 C-11.53465 30.29487403 -17.4179733 27.76466784 -23.5625 25.5 C-24.76197266 25.07074219 -25.96144531 24.64148438 -27.19726562 24.19921875 C-30.13631382 23.14537677 -33.07003149 22.07877417 -36 21 C-32.27408492 19.75802831 -29.54818865 20.46000972 -25.8125 21.21484375 C-25.11358643 21.34943497 -24.41467285 21.48402618 -23.69458008 21.62269592 C-21.46160011 22.05384467 -19.23078358 22.49513975 -17 22.9375 C-14.76893555 23.37462906 -12.53748327 23.80959271 -10.30541992 24.24159241 C-8.91690513 24.51088225 -7.52901594 24.78342267 -6.1418457 25.05955505 C-3.36784415 25.60204704 -0.83561435 26 2 26 C1.4016333 25.59273682 0.8032666 25.18547363 0.18676758 24.76586914 C-10.90272769 17.21632223 -21.990116 9.66537207 -33 2 C-32.34 1.67 -31.68 1.34 -31 1 C-28.5324707 2.06054688 -28.5324707 2.06054688 -25.42578125 3.71875 C-23.72095581 4.61859619 -23.72095581 4.61859619 -21.98168945 5.53662109 C-21.38152008 5.85781921 -20.78135071 6.17901733 -20.16299438 6.50994873 C-17.09644961 8.15061112 -14.01683516 9.76631986 -10.9375 11.3828125 C-10.33476761 11.69989166 -9.73203522 12.01697083 -9.11103821 12.34365845 C-2.51349611 15.80230746 4.19671912 18.96872242 11 22 C10.66677734 21.40461426 10.33355469 20.80922852 9.99023438 20.19580078 C8.48911176 17.50795151 6.9944864 14.8165443 5.5 12.125 C4.97535156 11.18785156 4.45070312 10.25070313 3.91015625 9.28515625 C3.41386719 8.38925781 2.91757813 7.49335937 2.40625 6.5703125 C1.94541016 5.74289551 1.48457031 4.91547852 1.00976562 4.06298828 C0 2 0 2 0 0 Z " fill="#CEAA51" transform="translate(100,40)"/>
<path d="M0 0 C-5.03343465 5.45288754 -5.03343465 5.45288754 -9 6 C-9.66 6.33 -10.32 6.66 -11 7 C-11.13921875 7.60585937 -11.2784375 8.21171875 -11.421875 8.8359375 C-12.49433478 12.85041534 -15.89154064 15.40198238 -19 18 C-21.9375 19.4375 -21.9375 19.4375 -24 20 C-23.01 20.99 -22.02 21.98 -21 23 C-24.95826931 23.05880857 -28.91642392 23.09386513 -32.875 23.125 C-34.53789063 23.15013672 -34.53789063 23.15013672 -36.234375 23.17578125 C-45.4433485 23.22995168 -53.88027029 22.70089615 -62 18 C-61.34 17.67 -60.68 17.34 -60 17 C-60 16.01 -60 15.02 -60 14 C-53.07 14.33 -46.14 14.66 -39 15 C-39 14.01 -39 13.02 -39 12 C-37.35 11.67 -35.7 11.34 -34 11 C-34 10.01 -34 9.02 -34 8 C-36.64 7.67 -39.28 7.34 -42 7 C-42 6.67 -42 6.34 -42 6 C-39.36 5.67 -36.72 5.34 -34 5 C-34 5.66 -34 6.32 -34 7 C-33.01 7 -32.02 7 -31 7 C-31 7.66 -31 8.32 -31 9 C-29.68 9 -28.36 9 -27 9 C-26.79375 8.4225 -26.5875 7.845 -26.375 7.25 C-23.98035626 3.33149206 -20.27248678 1.42416226 -16 0 C-13.65005089 -0.25148088 -11.29469902 -0.45436512 -8.9375 -0.625 C-7.68839844 -0.72039063 -6.43929687 -0.81578125 -5.15234375 -0.9140625 C-2 -1 -2 -1 0 0 Z " fill="#B49E5B" transform="translate(134,64)"/>
<path d="M0 0 C4.03444016 1.30490795 7.94980534 2.7743362 11.875 4.375 C31.19351037 11.82548352 50.37307116 13.30957656 70.875 13.125 C72.83463081 13.11494396 74.79426665 13.10582278 76.75390625 13.09765625 C81.50273087 13.07586489 86.25130823 13.04148165 91 13 C90.67 14.98 90.34 16.96 90 19 C61.46616092 23.57722645 29.59230804 20.20522657 3 9 C3 8.34 3 7.68 3 7 C2.01 6.67 1.02 6.34 0 6 C0 5.01 0 4.02 0 3 C-0.66 2.67 -1.32 2.34 -2 2 C-1.34 2 -0.68 2 0 2 C0 1.34 0 0.68 0 0 Z " fill="#CDD2D6" transform="translate(61,123)"/>
<path d="M0 0 C14.19 0 28.38 0 43 0 C43 0.33 43 0.66 43 1 C43.88042969 0.98839844 44.76085937 0.97679688 45.66796875 0.96484375 C47.41013672 0.95130859 47.41013672 0.95130859 49.1875 0.9375 C50.33605469 0.92589844 51.48460937 0.91429688 52.66796875 0.90234375 C55.59300586 0.98807168 58.16316291 1.32150977 61 2 C60.34 2.33 59.68 2.66 59 3 C59 3.66 59 4.32 59 5 C59.99 5.33 60.98 5.66 62 6 C62 6.33 62 6.66 62 7 C49.60943774 9.7204371 36.61203409 9.12101099 24 9 C24 8.67 24 8.34 24 8 C20.62501842 7.97077354 17.25006979 7.95312532 13.875 7.9375 C12.92367187 7.92912109 11.97234375 7.92074219 10.9921875 7.91210938 C6.20981513 7.89550392 1.70228431 7.99462945 -3 9 C-3.33 9.99 -3.66 10.98 -4 12 C-4.70125 11.690625 -5.4025 11.38125 -6.125 11.0625 C-9.08936657 9.96697322 -11.87698108 9.43577008 -15 9 C-15.33 7.68 -15.66 6.36 -16 5 C-10.75117306 1.82307843 -5.98511371 1.34302035 0 1 C0 0.67 0 0.34 0 0 Z " fill="#D1B777" transform="translate(104,85)"/>
<path d="M0 0 C8.02071473 1.94202345 15.45450713 4.66839495 23 8 C22.04270084 9.12588014 21.08412105 10.2506715 20.125 11.375 C19.59132812 12.00148438 19.05765625 12.62796875 18.5078125 13.2734375 C17.38567993 14.55836651 16.20628025 15.79371975 15 17 C25.56 17.66 36.12 18.32 47 19 C47 19.33 47 19.66 47 20 C37.65741704 21.12998844 28.39146903 21.09908936 19 21 C19 21.99 19 22.98 19 24 C16.1875 24.6875 16.1875 24.6875 13 25 C12.29653442 24.27623169 12.29653442 24.27623169 11.57885742 23.5378418 C10.11033489 21.81358035 10.11033489 21.81358035 7.9152832 21.65942383 C7.13499756 21.67513428 6.35471191 21.69084473 5.55078125 21.70703125 C4.27944336 21.7215332 4.27944336 21.7215332 2.98242188 21.73632812 C2.10134766 21.76146484 1.22027344 21.78660156 0.3125 21.8125 C-0.58017578 21.82603516 -1.47285156 21.83957031 -2.39257812 21.85351562 C-4.59566166 21.88885921 -6.79752582 21.93819507 -9 22 C-8.20361328 20.03808594 -8.20361328 20.03808594 -7 18 C-3.7421875 17.390625 -3.7421875 17.390625 0.125 17.25 C1.40632813 17.19328125 2.68765625 17.1365625 4.0078125 17.078125 C4.99523437 17.05234375 5.98265625 17.0265625 7 17 C3.92608026 15.76668124 0.83981533 14.567875 -2.25 13.375 C-3.12269531 13.024375 -3.99539062 12.67375 -4.89453125 12.3125 C-5.73886719 11.99023438 -6.58320313 11.66796875 -7.453125 11.3359375 C-8.22817383 11.03220215 -9.00322266 10.7284668 -9.80175781 10.41552734 C-12.62066429 9.88267763 -13.63958902 10.42943641 -16 12 C-17.50335285 13.30960438 -17.50335285 13.30960438 -18.83984375 14.8203125 C-19.34580078 15.35527344 -19.85175781 15.89023438 -20.37304688 16.44140625 C-21.41811618 17.5660626 -22.45718373 18.69632525 -23.49023438 19.83203125 C-27.38690598 23.92180348 -27.38690598 23.92180348 -30.87890625 24.3671875 C-31.57886719 24.24601562 -32.27882812 24.12484375 -33 24 C-30.8355346 19.19103592 -27.39953361 15.91758953 -23.75 12.1875 C-23.09386719 11.48173828 -22.43773437 10.77597656 -21.76171875 10.04882812 C-16.86797147 5.05292509 -16.86797147 5.05292509 -13.1171875 4.82421875 C-12.08851563 5.21222656 -11.05984375 5.60023437 -10 6 C-9.28005859 6.25837646 -8.56011719 6.51675293 -7.81835938 6.78295898 C-4.45704158 8.00682863 -1.13438214 9.32171018 2.1875 10.6484375 C3.00476563 10.96296875 3.82203125 11.2775 4.6640625 11.6015625 C5.76935303 12.03976318 5.76935303 12.03976318 6.89697266 12.48681641 C9.35131397 13.08572811 10.63000862 12.8036837 13 12 C13.99 11.67 14.98 11.34 16 11 C16 10.34 16 9.68 16 9 C15.21625 8.9175 14.4325 8.835 13.625 8.75 C8.822355 7.75634931 4.50190511 5.91286482 0 4 C0 2.68 0 1.36 0 0 Z " fill="#D5CCCE" transform="translate(168,57)"/>
<path d="M0 0 C3.625 0.375 3.625 0.375 7 1 C7 1.99 7 2.98 7 4 C5.35 4.33 3.7 4.66 2 5 C2 5.99 2 6.98 2 8 C-0.75006608 8.0270203 -3.49986546 8.04684883 -6.25 8.0625 C-7.02730469 8.07087891 -7.80460937 8.07925781 -8.60546875 8.08789062 C-9.73662109 8.09272461 -9.73662109 8.09272461 -10.890625 8.09765625 C-11.92751465 8.10551147 -11.92751465 8.10551147 -12.98535156 8.11352539 C-15.09973898 7.99437971 -16.96641515 7.57618237 -19 7 C-18.505 9.475 -18.505 9.475 -18 12 C-9.58741505 15.50524373 0.02555457 15.14957409 9 15 C9 15.33 9 15.66 9 16 C7.98679687 16.19916016 7.98679687 16.19916016 6.953125 16.40234375 C6.06109375 16.57894531 5.1690625 16.75554687 4.25 16.9375 C3.36828125 17.11152344 2.4865625 17.28554687 1.578125 17.46484375 C-0.63235053 17.92368488 -2.81512068 18.43336074 -5 19 C-5 19.66 -5 20.32 -5 21 C-3.68 21.33 -2.36 21.66 -1 22 C-3.75078884 22.91692961 -5.35948913 23.10886083 -8.1875 23.0625 C-10.0746875 23.0315625 -10.0746875 23.0315625 -12 23 C-12.350625 22.113125 -12.70125 21.22625 -13.0625 20.3125 C-16.25405987 14.85596215 -21.0403952 11.98653493 -27 10 C-27 9.01 -27 8.02 -27 7 C-35.91 6.67 -44.82 6.34 -54 6 C-54 5.67 -54 5.34 -54 5 C-48.48291932 3.88909722 -43.02775718 3.72209862 -37.421875 3.53515625 C-35.35415412 3.45671014 -33.28644612 3.3779241 -31.21875 3.29882812 C-27.97082155 3.17870805 -24.72285845 3.06157141 -21.47460938 2.95043945 C-18.33165411 2.84126959 -15.18932826 2.72032509 -12.046875 2.59765625 C-11.06982605 2.56736832 -10.0927771 2.53708038 -9.08612061 2.50587463 C-7.73396454 2.45088051 -7.73396454 2.45088051 -6.35449219 2.39477539 C-5.16252228 2.35266685 -5.16252228 2.35266685 -3.94647217 2.30970764 C-1.76673127 2.15820509 -1.76673127 2.15820509 0 0 Z " fill="#BDA45E" transform="translate(93,71)"/>
<path d="M0 0 C-1.49247964 3.71883048 -3.52310349 5.41436991 -6.6875 7.8125 C-10.35635126 10.67622884 -13.59897449 13.56057833 -16.74609375 16.9921875 C-17.38909424 17.6833667 -18.03209473 18.3745459 -18.69458008 19.08666992 C-19.96456068 20.4687596 -21.21152169 21.87242233 -22.43237305 23.2980957 C-24.21799262 25.22123884 -25.71392588 26.70641659 -28 28 C-31.29446043 28.07177934 -33.95933925 27.2051224 -37 26 C-37.93972656 25.64679688 -38.87945312 25.29359375 -39.84765625 24.9296875 C-40.57855469 24.58164063 -41.30945313 24.23359375 -42.0625 23.875 C-42.81660156 23.52179688 -43.57070312 23.16859375 -44.34765625 22.8046875 C-44.89292969 22.53914063 -45.43820313 22.27359375 -46 22 C-41.79226568 16.54131764 -37.27260664 12.86365278 -31.62109375 8.9375 C-29.31807367 7.23511854 -27.48105818 5.54644945 -25.5625 3.4375 C-24.716875 2.633125 -23.87125 1.82875 -23 1 C-20.83984375 1.34765625 -20.83984375 1.34765625 -19 2 C-19.69738281 2.69609375 -20.39476563 3.3921875 -21.11328125 4.109375 C-23.09678386 6.09217846 -25.07205986 8.08280663 -27.04296875 10.078125 C-28.09112308 11.13543923 -29.13930038 12.19273067 -30.1875 13.25 C-30.98704102 14.06210938 -30.98704102 14.06210938 -31.80273438 14.890625 C-35.77426242 18.88713121 -35.77426242 18.88713121 -38 20 C-35.23394361 21.71677553 -35.23394361 21.71677553 -32 23 C-28.86719783 21.88177382 -26.86704711 20.09578803 -24.57421875 17.734375 C-23.94193359 17.09113281 -23.30964844 16.44789062 -22.65820312 15.78515625 C-22.00787109 15.11355469 -21.35753906 14.44195312 -20.6875 13.75 C-6.39163294 -0.93536092 -6.39163294 -0.93536092 0 0 Z " fill="#D0CDD2" transform="translate(125,94)"/>
<path d="M0 0 C1.32 0.66 2.64 1.32 4 2 C3.01 2 2.02 2 1 2 C0.67 3.65 0.34 5.3 0 7 C-0.66 7 -1.32 7 -2 7 C-2 7.99 -2 8.98 -2 10 C-1.21367188 10.09152344 -0.42734375 10.18304688 0.3828125 10.27734375 C5.08922647 11.21761004 9.39758352 12.85986798 13.875 14.5625 C14.75414062 14.89185547 15.63328125 15.22121094 16.5390625 15.56054688 C18.69458053 16.36886614 20.84809441 17.18212294 23 18 C21.02460645 22.35207553 18.21112502 24.97802277 14.75 28.1875 C14.18925781 28.73341797 13.62851563 29.27933594 13.05078125 29.84179688 C9.40405298 33.24007599 7.07704476 34.45132802 2 35 C0.61767557 36.62626404 -0.71937515 38.2925002 -2 40 C-4.1171875 40.65625 -4.1171875 40.65625 -6 41 C-5.36771484 40.18595703 -5.36771484 40.18595703 -4.72265625 39.35546875 C-3.90087891 38.28232422 -3.90087891 38.28232422 -3.0625 37.1875 C-2.51722656 36.47980469 -1.97195312 35.77210937 -1.41015625 35.04296875 C0.16856248 32.95874948 0.16856248 32.95874948 1 30 C2.0828125 29.9071875 2.0828125 29.9071875 3.1875 29.8125 C8.3393317 28.32419307 10.88123308 24.1583559 14 20 C6.08 17.03 -1.84 14.06 -10 11 C-3.25 3.125 -3.25 3.125 0 0 Z " fill="#D5CFD1" transform="translate(122,40)"/>
<path d="M0 0 C2.31 0.33 4.62 0.66 7 1 C6.34 2.32 5.68 3.64 5 5 C4.34 5 3.68 5 3 5 C3.33 6.65 3.66 8.3 4 10 C10.78743178 12.81552726 16.68889006 13.3689719 24 13 C23.34 14.32 22.68 15.64 22 17 C22.639375 17.103125 23.27875 17.20625 23.9375 17.3125 C28.06477326 18.23903073 32.00642949 19.61660629 36 21 C36 21.33 36 21.66 36 22 C30.08739655 22.25706972 24.76081841 21.2982126 19 20 C18.67 20.99 18.34 21.98 18 23 C7.11 23.495 7.11 23.495 -4 24 C-4 23.67 -4 23.34 -4 23 C0.95 22.01 5.9 21.02 11 20 C10.34 19.67 9.68 19.34 9 19 C9 18.34 9 17.68 9 17 C6.23434618 16.07811539 4.61716298 15.88214778 1.76953125 15.90234375 C0.56586914 15.90717773 0.56586914 15.90717773 -0.66210938 15.91210938 C-1.49548828 15.92048828 -2.32886719 15.92886719 -3.1875 15.9375 C-4.03248047 15.94201172 -4.87746094 15.94652344 -5.74804688 15.95117188 C-7.83206155 15.96294597 -9.91603977 15.9808811 -12 16 C-12 15.67 -12 15.34 -12 15 C-8.535 14.505 -8.535 14.505 -5 14 C-5 12.68 -5 11.36 -5 10 C-3.36368108 8.95107762 -1.69514137 7.95093297 0 7 C0.33 6.01 0.66 5.02 1 4 C0.34 4 -0.32 4 -1 4 C-0.67 2.68 -0.34 1.36 0 0 Z " fill="#969267" transform="translate(154,71)"/>
<path d="M0 0 C0.73605469 0.01353516 1.47210938 0.02707031 2.23046875 0.04101562 C4.02896743 0.07605131 5.82708422 0.12984712 7.625 0.1875 C6.965 0.8475 6.305 1.5075 5.625 2.1875 C4.75617188 2.084375 3.88734375 1.98125 2.9921875 1.875 C-2.21272419 2.35805445 -4.66959513 5.59310918 -8.25 9.1875 C-8.95382813 9.87142822 -9.65765625 10.55535645 -10.3828125 11.26000977 C-12.39492101 13.22158268 -14.38723405 15.20130582 -16.375 17.1875 C-17.30570313 18.10402344 -18.23640625 19.02054688 -19.1953125 19.96484375 C-20.93683622 21.69076242 -22.65922602 23.43598073 -24.375 25.1875 C-27.345 24.1975 -30.315 23.2075 -33.375 22.1875 C-32.32892578 21.14529297 -32.32892578 21.14529297 -31.26171875 20.08203125 C-29.27111645 18.09283226 -27.29743447 16.08830455 -25.33203125 14.07421875 C-24.28389967 13.00776777 -23.23572214 11.94136196 -22.1875 10.875 C-21.65447266 10.32521484 -21.12144531 9.77542969 -20.57226562 9.20898438 C-19.21075044 7.83034322 -17.79659498 6.50410273 -16.375 5.1875 C-15.715 5.1875 -15.055 5.1875 -14.375 5.1875 C-14.375 4.5275 -14.375 3.8675 -14.375 3.1875 C-9.35513301 0.17082915 -5.66176196 -0.19964622 0 0 Z " fill="#DC292A" transform="translate(119.375,92.8125)"/>
<path d="M0 0 C-5.03343465 5.45288754 -5.03343465 5.45288754 -9 6 C-9.99 6.495 -9.99 6.495 -11 7 C-11.14566406 7.60328125 -11.29132813 8.2065625 -11.44140625 8.828125 C-12.50670634 12.97013093 -15.48257814 15.7199569 -19 18 C-22.42007758 18.57166994 -25.56962978 18.43483566 -29 18 C-28.67 17.34 -28.34 16.68 -28 16 C-28.0825 14.9275 -28.165 13.855 -28.25 12.75 C-27.98861475 8.82922123 -27.24925252 7.10885965 -24.5234375 4.28515625 C-18.86743193 -0.48619204 -6.75853581 -3.3792679 0 0 Z " fill="#0A548E" transform="translate(134,64)"/>
<path d="M0 0 C0.43828125 0.35191406 0.8765625 0.70382813 1.328125 1.06640625 C5.52569084 4.33402356 9.72839785 6.95073399 14.4375 9.4375 C19.72810503 12.41802905 19.72810503 12.41802905 20.91796875 14.96484375 C21.125 16.875 21.125 16.875 21 20 C21.66 20.33 22.32 20.66 23 21 C23 21.66 23 22.32 23 23 C23.63164063 23.17015625 24.26328125 23.3403125 24.9140625 23.515625 C32.63005048 25.605835 40.31738742 27.79054792 48 30 C48 30.33 48 30.66 48 31 C39.12743366 30.53302282 29.97453792 27.98726896 22 24 C22 23.34 22 22.68 22 22 C20.76443359 21.63841797 20.76443359 21.63841797 19.50390625 21.26953125 C15.38746037 19.77806535 11.74099338 17.83606535 7.9375 15.6875 C6.89625977 15.11999023 6.89625977 15.11999023 5.83398438 14.54101562 C1.55347268 12.13856319 -1.6981217 9.63657162 -5 6 C-4.01 5.67 -3.02 5.34 -2 5 C-0.78130071 2.49552484 -0.78130071 2.49552484 0 0 Z " fill="#CAD0D5" transform="translate(41,109)"/>
<path d="M0 0 C0.76075836 -0.00095673 1.52151672 -0.00191345 2.30532837 -0.00289917 C3.91416507 -0.00357932 5.52300452 -0.00173654 7.13183594 0.00244141 C9.58534982 0.00777724 12.03867942 0.00249849 14.4921875 -0.00390625 C16.05729207 -0.00324515 17.62239652 -0.00196333 19.1875 0 C19.91786469 -0.00202423 20.64822937 -0.00404846 21.40072632 -0.00613403 C25.13460757 0.0109072 28.59597335 0.23914267 32.2265625 1.1328125 C31.5665625 1.4628125 30.9065625 1.7928125 30.2265625 2.1328125 C30.2265625 2.7928125 30.2265625 3.4528125 30.2265625 4.1328125 C31.2165625 4.4628125 32.2065625 4.7928125 33.2265625 5.1328125 C33.2265625 5.4628125 33.2265625 5.7928125 33.2265625 6.1328125 C27.55339653 6.95633659 22.70152589 7.0238668 17.01806641 6.39770508 C11.12135314 5.83815165 5.18472713 5.76883133 -0.734375 5.61523438 C-1.7140625 5.58107422 -2.69375 5.54691406 -3.703125 5.51171875 C-4.58210449 5.4866626 -5.46108398 5.46160645 -6.36669922 5.43579102 C-8.89944225 5.11695006 -10.57885509 4.4058231 -12.7734375 3.1328125 C-9.07588487 -0.56474013 -4.90405933 -0.01351685 0 0 Z " fill="#CAB273" transform="translate(132.7734375,85.8671875)"/>
<path d="M0 0 C0.495 0.99 0.495 0.99 1 2 C1.99 2.495 1.99 2.495 3 3 C3 4.32 3 5.64 3 7 C-2.38027025 8.19088986 -7.45291384 9.2919519 -13 9 C-13 9.66 -13 10.32 -13 11 C-29.230035 12.95668883 -44.41237938 13.42666976 -60.6875 11.625 C-61.83549072 11.49907471 -62.98348145 11.37314941 -64.16625977 11.2434082 C-65.24963623 11.11409912 -66.3330127 10.98479004 -67.44921875 10.8515625 C-68.90847778 10.67874756 -68.90847778 10.67874756 -70.3972168 10.50244141 C-72.92864903 10.0137736 -74.77413801 9.27483279 -77 8 C-75.1873655 8.14415198 -73.37489978 8.29042636 -71.5625 8.4375 C-70.04849609 8.55931641 -70.04849609 8.55931641 -68.50390625 8.68359375 C-66.67883437 8.84839957 -64.85355404 9.01835238 -63.03527832 9.24621582 C-57.38394656 9.95291452 -51.84329824 10.13219712 -46.15234375 10.09765625 C-44.80638878 10.09553383 -44.80638878 10.09553383 -43.4332428 10.09336853 C-40.60129286 10.0878251 -37.76942555 10.07528358 -34.9375 10.0625 C-33.00325636 10.05747767 -31.06901147 10.05291606 -29.13476562 10.04882812 C-24.42314583 10.03787429 -19.71158687 10.02064953 -15 10 C-15.495 8.515 -15.495 8.515 -16 7 C-15.34 6.01 -14.68 5.02 -14 4 C-14.66 3.67 -15.32 3.34 -16 3 C-10.72 2.01 -5.44 1.02 0 0 Z " fill="#7C91AB" transform="translate(166,132)"/>
<path d="M0 0 C0.33 0 0.66 0 1 0 C1.83822164 15.55366814 -0.69832592 26.27442919 -10.23046875 39.05078125 C-10.81441406 39.69402344 -11.39835937 40.33726563 -12 41 C-12.66 41 -13.32 41 -14 41 C-14 41.66 -14 42.32 -14 43 C-14.66 43 -15.32 43 -16 43 C-16 43.66 -16 44.32 -16 45 C-19.46153846 48 -19.46153846 48 -22 48 C-22 48.66 -22 49.32 -22 50 C-26.12800476 52.98286059 -30.59007232 55.45952377 -35 58 C-36.02351563 58.60585937 -37.04703125 59.21171875 -38.1015625 59.8359375 C-51.92140997 67.41456353 -70.15523791 73.31068161 -86 73 C-86 72.67 -86 72.34 -86 72 C-84.87207031 71.79246094 -83.74414062 71.58492188 -82.58203125 71.37109375 C-56.355134 66.32876125 -26.13231035 57.13712931 -10 34 C-4.87112139 25.06516782 -1.0193186 16.47898403 -0.375 6.0625 C-0.30023438 4.91910156 -0.22546875 3.77570313 -0.1484375 2.59765625 C-0.07496094 1.31181641 -0.07496094 1.31181641 0 0 Z " fill="#174373" transform="translate(239,69)"/>
<path d="M0 0 C39.26481364 -0.20638953 39.26481364 -0.20638953 54 1 C54 1.33 54 1.66 54 2 C44.65741704 3.12998844 35.39146903 3.09908936 26 3 C26 3.99 26 4.98 26 6 C23.1875 6.6875 23.1875 6.6875 20 7 C19.53102295 6.51748779 19.0620459 6.03497559 18.57885742 5.5378418 C17.11033489 3.81358035 17.11033489 3.81358035 14.9152832 3.65942383 C13.74485474 3.6829895 13.74485474 3.6829895 12.55078125 3.70703125 C11.27944336 3.7215332 11.27944336 3.7215332 9.98242188 3.73632812 C9.10134766 3.76146484 8.22027344 3.78660156 7.3125 3.8125 C6.41982422 3.82603516 5.52714844 3.83957031 4.60742188 3.85351562 C2.40433834 3.88885921 0.20247418 3.93819507 -2 4 C-1.34 2.68 -0.68 1.36 0 0 Z " fill="#B09F63" transform="translate(161,75)"/>
<path d="M0 0 C0 0.33 0 0.66 0 1 C-0.93972656 1.19916016 -0.93972656 1.19916016 -1.8984375 1.40234375 C-2.71570313 1.57894531 -3.53296875 1.75554687 -4.375 1.9375 C-5.18710938 2.11152344 -5.99921875 2.28554687 -6.8359375 2.46484375 C-9.029463 2.92330693 -9.029463 2.92330693 -11 4 C-12.99551782 4.35919321 -14.99548879 4.69496569 -17 5 C-17 4.34 -17 3.68 -17 3 C-17.99 2.34 -18.98 1.68 -20 1 C-13.30386804 0.202163 -6.74233419 -0.12910853 0 0 Z M-30 2 C-21.42857143 1.71428571 -21.42857143 1.71428571 -18 4 C-18 7 -18 7 -19.96875 9.04296875 C-21.22171875 10.10451172 -21.22171875 10.10451172 -22.5 11.1875 C-23.3353125 11.90292969 -24.170625 12.61835937 -25.03125 13.35546875 C-25.6809375 13.89816406 -26.330625 14.44085938 -27 15 C-27.66 14.67 -28.32 14.34 -29 14 C-26.69 12.02 -24.38 10.04 -22 8 C-28.0495687 8.45470614 -32.56638513 11.22943431 -37.75 14.125 C-39.44911216 15.07233757 -41.15206172 16.01283623 -42.859375 16.9453125 C-43.60670898 17.36312988 -44.35404297 17.78094727 -45.12402344 18.21142578 C-45.7430957 18.47165527 -46.36216797 18.73188477 -47 19 C-47.66 18.67 -48.32 18.34 -49 18 C-48.52054932 17.67725098 -48.04109863 17.35450195 -47.54711914 17.02197266 C-45.38239901 15.56096388 -43.22242457 14.09308807 -41.0625 12.625 C-39.93038086 11.86316406 -39.93038086 11.86316406 -38.77539062 11.0859375 C-38.05673828 10.59609375 -37.33808594 10.10625 -36.59765625 9.6015625 C-35.93258057 9.15119629 -35.26750488 8.70083008 -34.58227539 8.23681641 C-32.85607103 7.06986775 -32.85607103 7.06986775 -32 5 C-34.31 4.67 -36.62 4.34 -39 4 C-39 3.67 -39 3.34 -39 3 C-36.03 3 -33.06 3 -30 3 C-30 2.67 -30 2.34 -30 2 Z " fill="#C0CBD3" transform="translate(117,92)"/>
<path d="M0 0 C10.55808656 3.07517084 10.55808656 3.07517084 15 5 C15 5.33 15 5.66 15 6 C13.86820313 6.03738281 12.73640625 6.07476562 11.5703125 6.11328125 C10.08850795 6.17893082 8.60673861 6.24537851 7.125 6.3125 C6.00544922 6.34633789 6.00544922 6.34633789 4.86328125 6.38085938 C2.900396 6.47811945 0.94671678 6.73042294 -1 7 C-1.99 8.485 -1.99 8.485 -3 10 C3.6 9.67 10.2 9.34 17 9 C17 9.99 17 10.98 17 12 C17.66 12 18.32 12 19 12 C18.67 12.99 18.34 13.98 18 15 C10.6706359 17.71281658 3.75135132 15.89100332 -3.12890625 12.875 C-3.74636719 12.58625 -4.36382812 12.2975 -5 12 C-5.1875 9.625 -5.1875 9.625 -5 7 C-4.01 6.34 -3.02 5.68 -2 5 C-2 4.01 -2 3.02 -2 2 C-1.34 1.34 -0.68 0.68 0 0 Z " fill="#215A81" transform="translate(162,69)"/>
<path d="M0 0 C3.35951302 0.60538788 6.44884363 1.43324081 9.64453125 2.62890625 C10.90620117 3.09780273 10.90620117 3.09780273 12.19335938 3.57617188 C13.48983398 4.0644043 13.48983398 4.0644043 14.8125 4.5625 C15.69615234 4.89185547 16.57980469 5.22121094 17.49023438 5.56054688 C19.66143495 6.37034601 21.83127889 7.18358893 24 8 C24 8.99 24 9.98 24 11 C20.3980073 13.22423049 17.17830229 13.35447012 13 13.5625 C7.42722534 13.82813814 7.42722534 13.82813814 2 15 C2 14.01 2 13.02 2 12 C2.99 12 3.98 12 5 12 C4.58525633 6.71201818 3.64775386 3.88309282 0 0 Z " fill="#BFA45B" transform="translate(112,51)"/>
<path d="M0 0 C0.66 0.33 1.32 0.66 2 1 C-0.62304564 2.98176757 -3.24876211 4.95996531 -5.875 6.9375 C-6.62136719 7.50146484 -7.36773437 8.06542969 -8.13671875 8.64648438 C-8.85214844 9.18466797 -9.56757813 9.72285156 -10.3046875 10.27734375 C-10.96452637 10.77484131 -11.62436523 11.27233887 -12.30419922 11.78491211 C-14 13 -14 13 -16 14 C-16.65772428 17.02934491 -16.65772428 17.02934491 -17 20 C-19.97 19.01 -22.94 18.02 -26 17 C-23.99006295 12.98012591 -22.06153611 10.85483005 -18.875 7.75 C-17.96492187 6.85796875 -17.05484375 5.9659375 -16.1171875 5.046875 C-15.41851562 4.37140625 -14.71984375 3.6959375 -14 3 C-14.33 2.34 -14.66 1.68 -15 1 C-13.0625 1.3125 -13.0625 1.3125 -11 2 C-10.67 2.99 -10.34 3.98 -10 5 C-9.30132812 4.62746094 -8.60265625 4.25492188 -7.8828125 3.87109375 C-6.97273438 3.39800781 -6.06265625 2.92492188 -5.125 2.4375 C-4.22007812 1.96183594 -3.31515625 1.48617187 -2.3828125 0.99609375 C-1.59648437 0.66738281 -0.81015625 0.33867188 0 0 Z " fill="#D5C9CC" transform="translate(185,41)"/>
<path d="M0 0 C0.33 0 0.66 0 1 0 C1.03738281 0.89460938 1.07476562 1.78921875 1.11328125 2.7109375 C2.04282219 19.80720027 7.31172164 32.41758194 19.9140625 44.3984375 C28.50353418 51.88712252 38.73374714 57.20532147 49 62 C44.89436272 63.36854576 43.58401726 62.15825517 39.75 60.25 C34.03435436 57.35718654 28.79866496 53.95897994 23.625 50.1875 C22.96467773 49.70764648 22.30435547 49.22779297 21.62402344 48.73339844 C20.03991825 47.5438442 18.51348662 46.27819668 17 45 C17 44.34 17 43.68 17 43 C16.34 43 15.68 43 15 43 C15 42.34 15 41.68 15 41 C14.34 41 13.68 41 13 41 C13 40.34 13 39.68 13 39 C12.34 39 11.68 39 11 39 C9.57774772 37.04629039 8.3073288 35.12583858 7.0625 33.0625 C6.702771 32.47218994 6.34304199 31.88187988 5.97241211 31.27368164 C3.23917391 26.66654484 1.28797094 22.18381691 0 17 C-0.18433594 16.38640625 -0.36867188 15.7728125 -0.55859375 15.140625 C-1.13666923 12.33721469 -1.1319677 9.67274119 -1.125 6.8125 C-1.12757812 5.74644531 -1.13015625 4.68039063 -1.1328125 3.58203125 C-1 1 -1 1 0 0 Z " fill="#19477A" transform="translate(14,69)"/>
<path d="M0 0 C2.31 0.33 4.62 0.66 7 1 C7.33 2.65 7.66 4.3 8 6 C16.41258495 9.50524373 26.02555457 9.14957409 35 9 C35 9.33 35 9.66 35 10 C34.32453125 10.13277344 33.6490625 10.26554687 32.953125 10.40234375 C32.06109375 10.57894531 31.1690625 10.75554687 30.25 10.9375 C29.36828125 11.11152344 28.4865625 11.28554687 27.578125 11.46484375 C25.36764947 11.92368488 23.18487932 12.43336074 21 13 C21 13.66 21 14.32 21 15 C22.32 15.33 23.64 15.66 25 16 C22.24921116 16.91692961 20.64051087 17.10886083 17.8125 17.0625 C15.9253125 17.0315625 15.9253125 17.0315625 14 17 C13.649375 16.113125 13.29875 15.22625 12.9375 14.3125 C9.74594013 8.85596215 4.9596048 5.98653493 -1 4 C-0.67 2.68 -0.34 1.36 0 0 Z " fill="#BDB58E" transform="translate(67,77)"/>
<path d="M0 0 C2.97 5.28 5.94 10.56 9 16 C8.34 16.33 7.68 16.66 7 17 C5.12060547 16.28735352 5.12060547 16.28735352 2.8671875 15.12890625 C2.06152344 14.71962891 1.25585938 14.31035156 0.42578125 13.88867188 C-0.41597656 13.45103516 -1.25773437 13.01339844 -2.125 12.5625 C-2.97449219 12.12873047 -3.82398437 11.69496094 -4.69921875 11.24804688 C-6.80322092 10.17240532 -8.9031458 9.08949234 -11 8 C-10.6875 6.0625 -10.6875 6.0625 -10 4 C-9.01 3.67 -8.02 3.34 -7 3 C-7 2.34 -7 1.68 -7 1 C-2.25 0 -2.25 0 0 0 Z " fill="#0D558E" transform="translate(103,46)"/>
<path d="M0 0 C2.64 0 5.28 0 8 0 C7.4068511 9.46992897 5.73572278 18.68822938 4 28 C3.67 28 3.34 28 3 28 C2.49171557 24.64703509 1.99488543 21.29246657 1.5 17.9375 C1.35691406 16.99455078 1.21382813 16.05160156 1.06640625 15.08007812 C0.32190861 9.99267758 -0.17113566 5.1412006 0 0 Z " fill="#BFA254" transform="translate(123,101)"/>
<path d="M0 0 C5.4 0.6 5.4 0.6 7.875 2.25 C9.46054948 4.7164103 9.38774752 6.10032287 9 9 C7.0234375 11.421875 7.0234375 11.421875 4.375 13.75 C3.51648438 14.52859375 2.65796875 15.3071875 1.7734375 16.109375 C-1.2765322 18.18850927 -3.39827191 18.49696535 -7 19 C-8.38232443 20.62626404 -9.71937515 22.2925002 -11 24 C-13.1171875 24.65625 -13.1171875 24.65625 -15 25 C-14.57847656 24.45730469 -14.15695313 23.91460937 -13.72265625 23.35546875 C-13.17480469 22.64003906 -12.62695312 21.92460938 -12.0625 21.1875 C-11.51722656 20.47980469 -10.97195312 19.77210937 -10.41015625 19.04296875 C-8.83143752 16.95874948 -8.83143752 16.95874948 -8 14 C-7.278125 13.938125 -6.55625 13.87625 -5.8125 13.8125 C-0.78704675 12.3607024 2.07728172 8.1533365 5 4 C3.35 3.34 1.7 2.68 0 2 C0 1.34 0 0.68 0 0 Z " fill="#D3CDD0" transform="translate(131,56)"/>
<path d="M0 0 C0.74958984 0.00451172 1.49917969 0.00902344 2.27148438 0.01367188 C4.11852383 0.02543646 5.96552213 0.04337135 7.8125 0.0625 C7.1525 0.7225 6.4925 1.3825 5.8125 2.0625 C4.905 1.98902344 3.9975 1.91554688 3.0625 1.83984375 C-2.002298 2.18683111 -4.41539971 5.7167618 -7.6875 9.24023438 C-9.1875 10.75390625 -9.1875 10.75390625 -12.1875 13.0625 C-15.5625 12.90234375 -15.5625 12.90234375 -18.1875 12.0625 C-17.8575 11.0725 -17.5275 10.0825 -17.1875 9.0625 C-16.1975 8.7325 -15.2075 8.4025 -14.1875 8.0625 C-14.5175 7.4025 -14.8475 6.7425 -15.1875 6.0625 C-14.5275 6.0625 -13.8675 6.0625 -13.1875 6.0625 C-12.7853125 4.8559375 -12.7853125 4.8559375 -12.375 3.625 C-11.983125 2.779375 -11.59125 1.93375 -11.1875 1.0625 C-7.42449626 -0.19183458 -3.91539091 -0.04445422 0 0 Z " fill="#CE3035" transform="translate(119.1875,92.9375)"/>
<path d="M0 0 C0.6875 1.8125 0.6875 1.8125 1 4 C-1.16238085 7.30717071 -4.28849615 8.10648981 -8 9 C-13.82313963 9.60527258 -17.89285361 9.14285932 -23 6 C-22.34 5.67 -21.68 5.34 -21 5 C-21 4.01 -21 3.02 -21 2 C-14.07 2.33 -7.14 2.66 0 3 C0 2.01 0 1.02 0 0 Z " fill="#055394" transform="translate(95,76)"/>
<path d="M0 0 C4.92919811 1.67091461 9.83594702 3.36377235 14.6875 5.25 C13.31766497 8.41115776 12.6984362 9.2427092 9.6875 11.25 C9.3575 9.93 9.0275 8.61 8.6875 7.25 C7.08634424 7.0006643 5.48129841 6.77621352 3.875 6.5625 C2.98167969 6.43488281 2.08835938 6.30726562 1.16796875 6.17578125 C-1.36426938 5.991407 -1.36426938 5.991407 -2.9765625 7.6796875 C-3.41742188 8.19789062 -3.85828125 8.71609375 -4.3125 9.25 C-6.875 10.0625 -6.875 10.0625 -9.3125 10.25 C-9.9725 9.59 -10.6325 8.93 -11.3125 8.25 C-4.6584724 0.35158282 -4.6584724 0.35158282 0 0 Z " fill="#CED0D5" transform="translate(164.3125,35.75)"/>
<path d="M0 0 C0.66 0.33 1.32 0.66 2 1 C1.01 2.65 0.02 4.3 -1 6 C1.475 6.495 1.475 6.495 4 7 C4.33 6.34 4.66 5.68 5 5 C5 8.65976546 4.29257359 9.19060636 1.8125 11.75 C-1.57392672 14.9797108 -1.57392672 14.9797108 -4.625 15.125 C-8.76512579 13.16388778 -12.38709682 10.81003581 -16 8 C-13 7 -13 7 -10.125 7.8125 C-7.0730194 8.36490907 -7.0730194 8.36490907 -5.5703125 6.734375 C-4.34530758 5.18318533 -3.17028014 3.5928813 -2 2 C-1.34 2 -0.68 2 0 2 C0 1.34 0 0.68 0 0 Z " fill="#D5CED1" transform="translate(153,39)"/>
<path d="M0 0 C11.81109623 1.36006563 23.36743887 3.56720041 35 6 C33 8.0625 33 8.0625 30 10 C23.07263681 10.00752974 16.90960396 7.37264481 10.5 4.9375 C8.98019531 4.37192383 8.98019531 4.37192383 7.4296875 3.79492188 C4.95013886 2.87093913 2.47382599 1.9391731 0 1 C0 0.67 0 0.34 0 0 Z " fill="#CEAB52" transform="translate(64,60)"/>
<path d="M0 0 C6.73495257 1.00637222 11.8390615 7.44843031 16.03125 12.3984375 C24.74419614 24.2067724 26.82193098 33.78533059 25 48 C24.67 48 24.34 48 24 48 C23.96261719 47.10539062 23.92523438 46.21078125 23.88671875 45.2890625 C22.87782129 26.73326215 16.54217374 15.68986909 3 3 C1.99564276 2.0043763 0.99352771 1.00643067 0 0 Z " fill="#1E4C7A" transform="translate(214,34)"/>
<path d="M0 0 C2.31 0.33 4.62 0.66 7 1 C6.34 2.32 5.68 3.64 5 5 C4.34 5 3.68 5 3 5 C3.28151087 6.31471568 3.57553339 7.62675767 3.875 8.9375 C4.11863281 10.03384766 4.11863281 10.03384766 4.3671875 11.15234375 C4.82961523 13.20700294 4.82961523 13.20700294 7 14 C5.20841511 14.02696365 3.41671527 14.04637917 1.625 14.0625 C0.62726563 14.07410156 -0.37046875 14.08570312 -1.3984375 14.09765625 C-4 14 -4 14 -6 13 C-4.73958325 9.21874975 -3.31129455 8.98677673 0 7 C0.33 6.01 0.66 5.02 1 4 C0.34 4 -0.32 4 -1 4 C-0.67 2.68 -0.34 1.36 0 0 Z " fill="#CDAA54" transform="translate(154,71)"/>
<path d="M0 0 C3.22265625 0.99609375 3.22265625 0.99609375 5.22265625 2.99609375 C1.92265625 6.29609375 -1.37734375 9.59609375 -4.77734375 12.99609375 C-5.10734375 12.00609375 -5.43734375 11.01609375 -5.77734375 9.99609375 C-4.79545188 8.31869513 -3.79600604 6.65141998 -2.77734375 4.99609375 C-3.10734375 4.33609375 -3.43734375 3.67609375 -3.77734375 2.99609375 C-4.16921875 3.71796875 -4.56109375 4.43984375 -4.96484375 5.18359375 C-7.28324578 8.78111414 -9.89549585 12.0551698 -13.77734375 13.99609375 C-14.43734375 13.33609375 -15.09734375 12.67609375 -15.77734375 11.99609375 C-13.94657166 9.9488757 -12.092726 7.93681736 -10.21484375 5.93359375 C-9.70115234 5.35287109 -9.18746094 4.77214844 -8.65820312 4.17382812 C-5.60879988 0.97290173 -4.61046214 -0.0047678 0 0 Z " fill="#D92C2E" transform="translate(166.77734375,41.00390625)"/>
<path d="M0 0 C-0.33 0.66 -0.66 1.32 -1 2 C-0.67 2.66 -0.34 3.32 0 4 C2.52733235 4.65555119 2.52733235 4.65555119 5 5 C5 5.33 5 5.66 5 6 C3.02 6.33 1.04 6.66 -1 7 C-1.33 7.99 -1.66 8.98 -2 10 C-2.70125 9.690625 -3.4025 9.38125 -4.125 9.0625 C-7.08936657 7.96697322 -9.87698108 7.43577008 -13 7 C-13.33 5.68 -13.66 4.36 -14 3 C-8.99067246 -0.00559652 -5.67276511 -0.29341888 0 0 Z " fill="#998C71" transform="translate(102,87)"/>
<path d="M0 0 C6.75 1.625 6.75 1.625 9 5 C4.545 5.495 4.545 5.495 0 6 C0.061875 7.175625 0.061875 7.175625 0.125 8.375 C0 11 0 11 -2 13 C-4.625 13.125 -4.625 13.125 -7 13 C-7.4375 10.4375 -7.4375 10.4375 -7 7 C-4.91317274 4.3796981 -2.53313752 2.1841849 0 0 Z " fill="#A09360" transform="translate(154,66)"/>
<path d="M0 0 C6.03331362 4.98404168 11.5184171 10.41915303 17 16 C16.34 16.66 15.68 17.32 15 18 C14.34 17.34 13.68 16.68 13 16 C9.88214887 16.64644661 9.88214887 16.64644661 9 19 C7.4933028 16.2118978 5.99580196 13.41896042 4.5 10.625 C4.07074219 9.8309375 3.64148438 9.036875 3.19921875 8.21875 C2.79316406 7.45820312 2.38710937 6.69765625 1.96875 5.9140625 C1.40317383 4.8614624 1.40317383 4.8614624 0.82617188 3.78759766 C0 2 0 2 0 0 Z " fill="#C7AA5B" transform="translate(100,40)"/>
<path d="M0 0 C0.66 0 1.32 0 2 0 C2 0.66 2 1.32 2 2 C3.32 2 4.64 2 6 2 C6.33 1.34 6.66 0.68 7 0 C7.12375 1.134375 7.2475 2.26875 7.375 3.4375 C7.58125 4.613125 7.7875 5.78875 8 7 C8.66 7.33 9.32 7.66 10 8 C10 8.66 10 9.32 10 10 C10.94746094 10.25523437 10.94746094 10.25523437 11.9140625 10.515625 C19.63005048 12.605835 27.31738742 14.79054792 35 17 C35 17.33 35 17.66 35 18 C26.12743366 17.53302282 16.97453792 14.98726896 9 11 C9 10.34 9 9.68 9 9 C8.13375 8.731875 7.2675 8.46375 6.375 8.1875 C3.08208036 7.02888013 0.08872125 5.61790161 -3 4 C-2.34 3.67 -1.68 3.34 -1 3 C-0.67 2.01 -0.34 1.02 0 0 Z " fill="#7D94AB" transform="translate(54,122)"/>
<path d="M0 0 C1.0528418 0.07831055 1.0528418 0.07831055 2.12695312 0.15820312 C3.85588054 0.28757865 5.58425355 0.42432531 7.3125 0.5625 C7.3125 1.2225 7.3125 1.8825 7.3125 2.5625 C9.7875 3.0575 9.7875 3.0575 12.3125 3.5625 C12.3125 3.8925 12.3125 4.2225 12.3125 4.5625 C8.89590509 4.62066623 5.47943795 4.65615195 2.0625 4.6875 C0.61037109 4.71263672 0.61037109 4.71263672 -0.87109375 4.73828125 C-2.27294922 4.74794922 -2.27294922 4.74794922 -3.703125 4.7578125 C-4.56196289 4.76828613 -5.42080078 4.77875977 -6.30566406 4.78955078 C-8.86653596 4.54543323 -10.48261029 3.85240512 -12.6875 2.5625 C-8.89400199 -1.23099801 -4.95523856 -0.40252638 0 0 Z " fill="#D7A549" transform="translate(132.6875,86.4375)"/>
<path d="M0 0 C2.79173055 -0.02690104 5.58320348 -0.04679053 8.375 -0.0625 C9.56609375 -0.07506836 9.56609375 -0.07506836 10.78125 -0.08789062 C16.7734375 -0.11328125 16.7734375 -0.11328125 19 1 C19 1.66 19 2.32 19 3 C16.65147472 4.17426264 15.26225935 4.11508173 12.6484375 4.09765625 C11.79765625 4.09443359 10.946875 4.09121094 10.0703125 4.08789062 C9.18085938 4.07951172 8.29140625 4.07113281 7.375 4.0625 C6.4778125 4.05798828 5.580625 4.05347656 4.65625 4.04882812 C2.43743352 4.03702591 0.21874982 4.02056155 -2 4 C-1.34 2.68 -0.68 1.36 0 0 Z " fill="#D0A94D" transform="translate(161,75)"/>
<path d="M0 0 C10.55808656 3.07517084 10.55808656 3.07517084 15 5 C15 5.33 15 5.66 15 6 C13.86820313 6.03738281 12.73640625 6.07476562 11.5703125 6.11328125 C10.08850795 6.17893082 8.60673861 6.24537851 7.125 6.3125 C6.00544922 6.34633789 6.00544922 6.34633789 4.86328125 6.38085938 C2.900396 6.47811945 0.94671678 6.73042294 -1 7 C-1.99 8.485 -1.99 8.485 -3 10 C-0.36 10 2.28 10 5 10 C5 10.33 5 10.66 5 11 C1.7 11.33 -1.6 11.66 -5 12 C-5 10.35 -5 8.7 -5 7 C-4.01 6.34 -3.02 5.68 -2 5 C-2 4.01 -2 3.02 -2 2 C-1.34 1.34 -0.68 0.68 0 0 Z " fill="#9B9872" transform="translate(162,69)"/>
<path d="M0 0 C5.51350585 -0.02490465 11.02697822 -0.04295608 16.54052734 -0.05493164 C18.41227795 -0.05992942 20.28402471 -0.06672988 22.15576172 -0.07543945 C24.86166335 -0.08770621 27.56751292 -0.093274 30.2734375 -0.09765625 C31.09677582 -0.10281754 31.92011414 -0.10797882 32.7684021 -0.11329651 C38.56511673 -0.11384375 44.24346122 0.32839588 50 1 C50 1.33 50 1.66 50 2 C40.33960055 3.26693763 30.72278418 3.08984092 21 3 C21 2.67 21 2.34 21 2 C14.07 1.67 7.14 1.34 0 1 C0 0.67 0 0.34 0 0 Z " fill="#9C9779" transform="translate(107,91)"/>
<path d="M0 0 C2.125 0.375 2.125 0.375 4 1 C-1.66666667 6.66666667 -7.33333333 12.33333333 -13 18 C-13.66 17.01 -14.32 16.02 -15 15 C-11.60955398 10.65599103 -7.97012263 7.08171023 -3.76953125 3.515625 C-1.91655093 1.96792368 -1.91655093 1.96792368 0 0 Z " fill="#D7CBCC" transform="translate(102,95)"/>
<path d="M0 0 C2.24001424 1.62799404 4.52752074 3.18592278 6.8125 4.75 C7.7087207 5.36681641 7.7087207 5.36681641 8.62304688 5.99609375 C10.08087454 6.99907918 11.54027474 7.9997783 13 9 C12.01 9.495 12.01 9.495 11 10 C8.76928711 9.13549805 8.76928711 9.13549805 6.02734375 7.76171875 C5.04572266 7.27123047 4.06410156 6.78074219 3.05273438 6.27539062 C2.02470703 5.75138672 0.99667969 5.22738281 -0.0625 4.6875 C-1.09439453 4.17509766 -2.12628906 3.66269531 -3.18945312 3.13476562 C-10.86888393 -0.73776786 -10.86888393 -0.73776786 -12 -3 C-6.08237618 -4.39238208 -4.50100618 -3.8729588 0 0 Z " fill="#B8A566" transform="translate(172,101)"/>
<path d="M0 0 C0.9075 0.103125 1.815 0.20625 2.75 0.3125 C3.08 3.2825 3.41 6.2525 3.75 9.3125 C-2 9.4375 -2 9.4375 -4.25 8.3125 C-4.25 7.6525 -4.25 6.9925 -4.25 6.3125 C-5.24 5.9825 -6.23 5.6525 -7.25 5.3125 C-4.05 0.38942308 -4.05 0.38942308 0 0 Z " fill="#A29061" transform="translate(127.25,73.6875)"/>
<path d="M0 0 C0 0.66 0 1.32 0 2 C-11.9140625 7.95703125 -11.9140625 7.95703125 -14.01269531 8.99853516 C-15.82314111 9.91087529 -17.6121784 10.86538772 -19.3984375 11.82421875 C-20.68621094 12.40623047 -20.68621094 12.40623047 -22 13 C-22.66 12.67 -23.32 12.34 -24 12 C-21.33224127 9.97255729 -18.63803325 7.98351822 -15.9375 6 C-15.18533203 5.42765625 -14.43316406 4.8553125 -13.65820312 4.265625 C-8.85496604 0.77236167 -5.96370646 -0.76031317 0 0 Z " fill="#BDA45D" transform="translate(92,98)"/>
<path d="M0 0 C0.66 0.66 1.32 1.32 2 2 C1.34 3.32 0.68 4.64 0 6 C-10.89 6.495 -10.89 6.495 -22 7 C-22 6.67 -22 6.34 -22 6 C-14.575 4.515 -14.575 4.515 -7 3 C-7.66 2.34 -8.32 1.68 -9 1 C-5.75778445 -0.08073852 -3.39597063 -0.21676408 0 0 Z " fill="#B8A577" transform="translate(172,88)"/>
<path d="M0 0 C0.98033203 -0.00386719 1.96066406 -0.00773437 2.97070312 -0.01171875 C3.92009766 -0.01042969 4.86949219 -0.00914063 5.84765625 -0.0078125 C7.13361694 -0.00612061 7.13361694 -0.00612061 8.44555664 -0.00439453 C11.0270022 0.12964742 13.41876409 0.5573896 15.9375 1.125 C15.9375 1.455 15.9375 1.785 15.9375 2.125 C11.9631168 3.09174186 8.40412709 3.17157372 4.32421875 3.00390625 C3.07705078 2.95556641 1.82988281 2.90722656 0.54492188 2.85742188 C-0.74865234 2.80134766 -2.04222656 2.74527344 -3.375 2.6875 C-4.68791016 2.63529297 -6.00082031 2.58308594 -7.35351562 2.52929688 C-10.59009739 2.3998336 -13.82635421 2.26487458 -17.0625 2.125 C-17.0625 1.795 -17.0625 1.465 -17.0625 1.125 C-11.37345922 -0.08789194 -5.78595038 -0.02291465 0 0 Z " fill="#AE9E63" transform="translate(56.0625,74.875)"/>
<path d="M0 0 C-1.54644648 1.68157287 -3.11280721 3.34484845 -4.6875 5 C-5.99267578 6.3921875 -5.99267578 6.3921875 -7.32421875 7.8125 C-10 10 -10 10 -12.83203125 10.3125 C-13.90517578 10.1578125 -13.90517578 10.1578125 -15 10 C-13.40128806 5.84334895 -10.38692539 2.8008925 -7 0 C-3.86650268 -1.04449911 -3.01031744 -0.93423645 0 0 Z " fill="#CFD1D6" transform="translate(150,71)"/>
<path d="M0 0 C1.32 0.66 2.64 1.32 4 2 C3.01 2 2.02 2 1 2 C0.67 3.65 0.34 5.3 0 7 C-0.66 7 -1.32 7 -2 7 C-2 8.32 -2 9.64 -2 11 C-4.3125 11.625 -4.3125 11.625 -7 12 C-7.99 11.34 -8.98 10.68 -10 10 C-6.7 6.7 -3.4 3.4 0 0 Z " fill="#CAD4DE" transform="translate(122,40)"/>
<path d="M0 0 C0.66 0.33 1.32 0.66 2 1 C1.649375 1.886875 1.29875 2.77375 0.9375 3.6875 C-0.01755602 7.06203126 0.02848868 8.69686152 1 12 C-1.97 11.01 -4.94 10.02 -8 9 C-2.25 2.25 -2.25 2.25 0 0 Z " fill="#CFD3D8" transform="translate(87,107)"/>
<path d="M0 0 C2.31 0.33 4.62 0.66 7 1 C5.625 3 5.625 3 4 5 C3.34 5 2.68 5 2 5 C2 5.66 2 6.32 2 7 C0.68 7.33 -0.64 7.66 -2 8 C-2 8.66 -2 9.32 -2 10 C-1.34 10 -0.68 10 0 10 C-0.33 10.66 -0.66 11.32 -1 12 C-2.32 11.01 -3.64 10.02 -5 9 C-4.67 8.01 -4.34 7.02 -4 6 C-5.98 6 -7.96 6 -10 6 C-6.5647952 3.70986347 -5.014669 3.82157027 -1 4 C-0.67 2.68 -0.34 1.36 0 0 Z " fill="#30648A" transform="translate(173,90)"/>
<path d="M0 0 C2 3 2 3 1.625 5.1875 C1.41875 5.785625 1.2125 6.38375 1 7 C0.0925 7.061875 -0.815 7.12375 -1.75 7.1875 C-5.78818524 8.19704631 -6.56273093 9.75030791 -9 13 C-11.1171875 13.65625 -11.1171875 13.65625 -13 14 C-12.57847656 13.45730469 -12.15695313 12.91460937 -11.72265625 12.35546875 C-11.17480469 11.64003906 -10.62695312 10.92460938 -10.0625 10.1875 C-9.51722656 9.47980469 -8.97195312 8.77210937 -8.41015625 8.04296875 C-6.83143752 5.95874948 -6.83143752 5.95874948 -6 3 C-5.195625 2.87625 -4.39125 2.7525 -3.5625 2.625 C-2.716875 2.41875 -1.87125 2.2125 -1 2 C-0.67 1.34 -0.34 0.68 0 0 Z " fill="#C1CED9" transform="translate(129,67)"/>
<path d="M0 0 C8.57142857 -0.28571429 8.57142857 -0.28571429 12 2 C10.828125 3.51171875 10.828125 3.51171875 9 5 C2.8928205 5.3598179 -3.23558699 3.921471 -9 2 C-9 1.67 -9 1.34 -9 1 C-6.03 1 -3.06 1 0 1 C0 0.67 0 0.34 0 0 Z " fill="#E7F2F6" transform="translate(87,94)"/>
<path d="M0 0 C0.33 1.65 0.66 3.3 1 5 C4.3 5.66 7.6 6.32 11 7 C11 7.33 11 7.66 11 8 C6.71 7.67 2.42 7.34 -2 7 C-2.33 5.68 -2.66 4.36 -3 3 C-6.63 3.33 -10.26 3.66 -14 4 C-10.07627117 0.07627117 -5.34401044 -0.25447669 0 0 Z " fill="#6A7E7A" transform="translate(80,88)"/>
<path d="M0 0 C0.66 0.33 1.32 0.66 2 1 C-0.55545263 2.96766709 -3.12052247 4.92239917 -5.6875 6.875 C-6.7693457 7.70837891 -6.7693457 7.70837891 -7.87304688 8.55859375 C-11.45091251 11.27058323 -14.65523806 13.64601107 -19 15 C-18.67 14.01 -18.34 13.02 -18 12 C-17.34 12 -16.68 12 -16 12 C-16 11.34 -16 10.68 -16 10 C-11.39534654 5.51652163 -6.02309903 2.2749115 0 0 Z " fill="#9E986E" transform="translate(185,41)"/>
<path d="M0 0 C0.33 0 0.66 0 1 0 C1.33910994 2.04071515 1.67102704 4.08262621 2 6.125 C2.185625 7.26195312 2.37125 8.39890625 2.5625 9.5703125 C2.96956049 12.76137602 3.07809902 15.78817791 3 19 C1.35 18.01 -0.3 17.02 -2 16 C-1.85890014 13.89551062 -1.71195825 11.7914123 -1.5625 9.6875 C-1.48128906 8.51574219 -1.40007812 7.34398437 -1.31640625 6.13671875 C-1 3 -1 3 0 0 Z " fill="#B5A468" transform="translate(127,24)"/>
<path d="M0 0 C-1.5830577 4.2742558 -4.50568404 6.26531794 -8 9 C-8.66 8.67 -9.32 8.34 -10 8 C-9.64505955 5.37344067 -9.27538036 3.42031739 -7.8125 1.1875 C-5.20638339 -0.51995571 -3.0400645 -0.20267097 0 0 Z " fill="#BDC4CC" transform="translate(125,94)"/>
<path d="M0 0 C5.08032185 -0.17518351 5.08032185 -0.17518351 8 1 C10.60028324 4.03811327 12.52202755 7.28342492 14 11 C13.67 11.66 13.34 12.32 13 13 C8.66666667 8.66666667 4.33333333 4.33333333 0 0 Z " fill="#C4AC67" transform="translate(140,100)"/>
<path d="M0 0 C1.37478516 0.01740234 1.37478516 0.01740234 2.77734375 0.03515625 C3.69644531 0.04417969 4.61554688 0.05320312 5.5625 0.0625 C6.27277344 0.07410156 6.98304688 0.08570312 7.71484375 0.09765625 C7.71484375 1.41765625 7.71484375 2.73765625 7.71484375 4.09765625 C4.75819856 5.57597885 1.97254638 5.15798408 -1.28515625 5.09765625 C-1.94515625 3.77765625 -2.60515625 2.45765625 -3.28515625 1.09765625 C-2.28515625 0.09765625 -2.28515625 0.09765625 0 0 Z " fill="#095490" transform="translate(170.28515625,79.90234375)"/>
<path d="M0 0 C4.62675657 1.3922459 8.64686231 3.29520984 12.875 5.625 C14.02742188 6.25664063 15.17984375 6.88828125 16.3671875 7.5390625 C17.67042969 8.26222656 17.67042969 8.26222656 19 9 C19 10.32 19 11.64 19 13 C14.94388206 11.57667134 11.82462748 9.61408397 8.375 7.0625 C7.43398437 6.37285156 6.49296875 5.68320312 5.5234375 4.97265625 C3.51608177 3.40343854 1.73439435 1.85661677 0 0 Z " fill="#C4A85D" transform="translate(67,41)"/>
<path d="M0 0 C0.66 0 1.32 0 2 0 C7.3324675 9.74236276 7.3652767 17.3481382 6 28 C5.67 28 5.34 28 5 28 C4.94392578 26.65808594 4.94392578 26.65808594 4.88671875 25.2890625 C4.47546191 17.72516227 3.4614664 11.14360357 1 4 C0.65270726 2.67023437 0.31478446 1.33783393 0 0 Z " fill="#2C5786" transform="translate(233,54)"/>
<path d="M0 0 C3.8063457 0.67170806 7.35206816 1.72746564 11 3 C10.67 5.31 10.34 7.62 10 10 C2.51708428 3.84965831 2.51708428 3.84965831 0 0 Z " fill="#1B5580" transform="translate(112,51)"/>
<path d="M0 0 C0.99 0.495 0.99 0.495 2 1 C2 4.63 2 8.26 2 12 C2.99 12.33 3.98 12.66 5 13 C5.25 20.625 5.25 20.625 3 24 C2.49656628 20.56299372 1.99784476 17.12531992 1.5 13.6875 C1.35691406 12.71103516 1.21382813 11.73457031 1.06640625 10.72851562 C0.93105469 9.79072266 0.79570313 8.85292969 0.65625 7.88671875 C0.53056641 7.02264404 0.40488281 6.15856934 0.27539062 5.26831055 C0 3 0 3 0 0 Z " fill="#B0A36C" transform="translate(123,105)"/>
<path d="M0 0 C1.68359375 1.55078125 1.68359375 1.55078125 3 3 C-5.19256018 4.45295405 -5.19256018 4.45295405 -8.5625 2.5625 C-9.036875 2.046875 -9.51125 1.53125 -10 1 C-6.42704846 -1.33616062 -4.05773972 -1.12235354 0 0 Z " fill="#D93027" transform="translate(163,89)"/>
<path d="M0 0 C-4.75 4.875 -4.75 4.875 -7 6 C-9 4 -9 4 -10 2 C-12.97 2 -15.94 2 -19 2 C-15.39943339 -0.40037774 -13.22312097 -0.41715576 -8.9375 -0.6875 C-7.68839844 -0.77386719 -6.43929687 -0.86023437 -5.15234375 -0.94921875 C-2 -1 -2 -1 0 0 Z " fill="#1F5B89" transform="translate(134,64)"/>
<path d="M0 0 C0.33 0.66 0.66 1.32 1 2 C1.8971875 1.7215625 1.8971875 1.7215625 2.8125 1.4375 C5 1 5 1 8 2 C8 3.32 8 4.64 8 6 C3.545 6.495 3.545 6.495 -1 7 C-0.67 4.69 -0.34 2.38 0 0 Z " fill="#D3AA4C" transform="translate(123,56)"/>
<path d="M0 0 C0.33 0.66 0.66 1.32 1 2 C-2.99560608 4.83022097 -6.42737323 3.76210446 -11 3 C-11 2.34 -11 1.68 -11 1 C-7.23822458 -1.55800728 -4.30753844 -0.97529172 0 0 Z " fill="#D82E25" transform="translate(99,89)"/>
<path d="M0 0 C0.99 0.66 1.98 1.32 3 2 C-1.30902834 4.21980248 -4.31090292 4.08209933 -9 3 C-9.33 2.34 -9.66 1.68 -10 1 C-6.22505093 -0.83354669 -4.02886104 -1.27227191 0 0 Z " fill="#DA2B20" transform="translate(130,87)"/>
<path d="M0 0 C1.62723299 0.45034123 3.25173664 0.91055354 4.875 1.375 C5.77992188 1.63023438 6.68484375 1.88546875 7.6171875 2.1484375 C10 3 10 3 12 5 C7.71 5 3.42 5 -1 5 C-1.33 4.01 -1.66 3.02 -2 2 C-1.34 1.34 -0.68 0.68 0 0 Z " fill="#1B5685" transform="translate(162,69)"/>
<path d="M0 0 C1.65 0.33 3.3 0.66 5 1 C5 1.99 5 2.98 5 4 C1.78817851 5.90608098 -0.53882603 6.22266247 -4.25 6.125 C-5.14203125 6.10695313 -6.0340625 6.08890625 -6.953125 6.0703125 C-7.96632813 6.03550781 -7.96632813 6.03550781 -9 6 C-5.78360346 4.25434889 -3.67986596 3.795563 0 4 C0 2.68 0 1.36 0 0 Z " fill="#A99B66" transform="translate(131,58)"/>
<path d="M0 0 C2.31 0 4.62 0 7 0 C6.67 1.32 6.34 2.64 6 4 C7.98 3.67 9.96 3.34 12 3 C11.34 4.32 10.68 5.64 10 7 C9.34 7 8.68 7 8 7 C7.67 7.99 7.34 8.98 7 10 C6.61908203 9.16855469 6.61908203 9.16855469 6.23046875 8.3203125 C5.88628906 7.59585938 5.54210937 6.87140625 5.1875 6.125 C4.85105469 5.40570313 4.51460937 4.68640625 4.16796875 3.9453125 C3.00532903 1.69457194 3.00532903 1.69457194 0 0 Z " fill="#1A5682" transform="translate(145,100)"/>
<path d="M0 0 C1.32 0 2.64 0 4 0 C4.66 1.65 5.32 3.3 6 5 C4 7 4 7 1.375 7.125 C0.59125 7.08375 -0.1925 7.0425 -1 7 C-1.04254356 5.00045254 -1.04080783 2.99958364 -1 1 C-0.67 0.67 -0.34 0.34 0 0 Z " fill="#BCA461" transform="translate(148,72)"/>
<path d="M0 0 C0.66 0.66 1.32 1.32 2 2 C1.21012527 3.91740583 0.41802852 5.83389641 -0.375 7.75 C-0.81585937 8.81734375 -1.25671875 9.8846875 -1.7109375 10.984375 C-2.73307585 13.37555926 -3.80213595 15.69383183 -5 18 C-6.66201898 13.94507418 -5.20927166 11.22066185 -3.625 7.3125 C-3.16351562 6.15363281 -2.70203125 4.99476562 -2.2265625 3.80078125 C-1 1 -1 1 0 0 Z " fill="#2E5987" transform="translate(20,52)"/>
<path d="M0 0 C0.66 1.32 1.32 2.64 2 4 C0.375 6 0.375 6 -2 8 C-5.25 8.25 -5.25 8.25 -8 8 C-7.04578192 6.85073734 -6.08647955 5.70569459 -5.125 4.5625 C-4.59132813 3.92441406 -4.05765625 3.28632812 -3.5078125 2.62890625 C-2 1 -2 1 0 0 Z " fill="#D7C8CA" transform="translate(114,99)"/>
<path d="M0 0 C0 0.99 0 1.98 0 3 C0.66 3 1.32 3 2 3 C1.67 3.99 1.34 4.98 1 6 C-0.65 6.33 -2.3 6.66 -4 7 C-3.65213292 8.97536745 -3.65213292 8.97536745 -3 11 C-2.34 11.33 -1.68 11.66 -1 12 C-1 12.66 -1 13.32 -1 14 C-3.475 13.01 -3.475 13.01 -6 12 C-6.375 9.375 -6.375 9.375 -6 6 C-4.19946381 3.66246179 -2.2392198 1.95931733 0 0 Z " fill="#C23D40" transform="translate(136,67)"/>
<path d="M0 0 C2.97 1.98 5.94 3.96 9 6 C4.97207512 7.00698122 3.20921332 6.86376936 -0.75 6.0625 C-1.73484375 5.86785156 -2.7196875 5.67320313 -3.734375 5.47265625 C-4.48203125 5.31667969 -5.2296875 5.16070312 -6 5 C-6 4.67 -6 4.34 -6 4 C-4.35 3.67 -2.7 3.34 -1 3 C-0.67 2.01 -0.34 1.02 0 0 Z " fill="#245A7D" transform="translate(94,60)"/>
<path d="M0 0 C1.98 0 3.96 0 6 0 C6.33 1.32 6.66 2.64 7 4 C1.25 5.125 1.25 5.125 -1 4 C-0.67 2.68 -0.34 1.36 0 0 Z " fill="#C4CDD7" transform="translate(180,77)"/>
<path d="M0 0 C2.31 0.33 4.62 0.66 7 1 C7 2.32 7 3.64 7 5 C1.25 5.125 1.25 5.125 -1 4 C-0.67 2.68 -0.34 1.36 0 0 Z " fill="#D5AA48" transform="translate(124,78)"/>
<path d="M0 0 C2.33944736 0.28730055 4.6739143 0.61936779 7 1 C7 1.99 7 2.98 7 4 C4.69 4.33 2.38 4.66 0 5 C-0.5625 3.0625 -0.5625 3.0625 -1 1 C-0.67 0.67 -0.34 0.34 0 0 Z " fill="#C7CFD6" transform="translate(67,77)"/>
<path d="M0 0 C2.625 0.9375 2.625 0.9375 5 2 C4.07347299 3.17539996 3.13336613 4.34010577 2.1875 5.5 C1.66542969 6.1496875 1.14335937 6.799375 0.60546875 7.46875 C-1 9 -1 9 -4 9 C-3.34 7.68 -2.68 6.36 -2 5 C-1.34 5 -0.68 5 0 5 C-0.66 3.68 -1.32 2.36 -2 1 C-1.34 0.67 -0.68 0.34 0 0 Z " fill="#C7CFD8" transform="translate(186,63)"/>
<path d="M0 0 C7.425 0.99 7.425 0.99 15 2 C15.33 3.32 15.66 4.64 16 6 C14.26982492 5.54548816 12.54090123 5.08621143 10.8125 4.625 C9.84957031 4.36976562 8.88664062 4.11453125 7.89453125 3.8515625 C5.17789793 3.05233704 2.60862825 2.0968638 0 1 C0 0.67 0 0.34 0 0 Z " fill="#B6A365" transform="translate(64,60)"/>
<path d="M0 0 C2.31 0.33 4.62 0.66 7 1 C7 1.99 7 2.98 7 4 C1.25 5.125 1.25 5.125 -1 4 C-0.67 2.68 -0.34 1.36 0 0 Z " fill="#CBD2D8" transform="translate(93,71)"/>
<path d="M0 0 C5.43396226 0.60377358 5.43396226 0.60377358 7.875 2.3125 C9 4 9 4 9 8 C7.02 8 5.04 8 3 8 C3.66 6.68 4.32 5.36 5 4 C2.525 3.01 2.525 3.01 0 2 C0 1.34 0 0.68 0 0 Z " fill="#CED2D9" transform="translate(131,56)"/>
<path d="M0 0 C-0.99 0.495 -0.99 0.495 -2 1 C-2 1.66 -2 2.32 -2 3 C-0.68 3.33 0.64 3.66 2 4 C-1.47325181 5.1577506 -4.36067448 5.06866652 -8 5 C-7.625 3.0625 -7.625 3.0625 -7 1 C-4.53721199 -0.231394 -2.7204945 -0.07159196 0 0 Z " fill="#D6A64F" transform="translate(90,89)"/>
<path d="M0 0 C0.6875 1.8125 0.6875 1.8125 1 4 C-0.125 5.75 -0.125 5.75 -2 7 C-4.6875 7.1875 -4.6875 7.1875 -7 7 C-7.33 5.68 -7.66 4.36 -8 3 C-5.36 3 -2.72 3 0 3 C0 2.01 0 1.02 0 0 Z " fill="#1A547B" transform="translate(95,76)"/>
<path d="M0 0 C2.31 0.33 4.62 0.66 7 1 C6.34 2.32 5.68 3.64 5 5 C2.03 4.505 2.03 4.505 -1 4 C-0.67 2.68 -0.34 1.36 0 0 Z " fill="#CAD2D9" transform="translate(154,71)"/>
<path d="M0 0 C0.86625 0.37125 0.86625 0.37125 1.75 0.75 C-1.10276137 3.68200474 -3.90079784 6.39315404 -7.25 8.75 C-6.89947365 5.59526281 -6.38480924 3.9266466 -4.4375 1.375 C-2.25 -0.25 -2.25 -0.25 0 0 Z " fill="#D9CFD1" transform="translate(104.25,95.25)"/>
<path d="M0 0 C0.33 0 0.66 0 1 0 C1.20086443 3.71599191 1.1519437 4.77208445 -1 8 C-4.125 8.1875 -4.125 8.1875 -7 8 C-6.02133662 6.85373678 -5.04205413 5.70800212 -4.0625 4.5625 C-3.51722656 3.92441406 -2.97195312 3.28632812 -2.41015625 2.62890625 C-1.63204305 1.73008851 -0.84063472 0.84063472 0 0 Z " fill="#1D5581" transform="translate(146,74)"/>
<path d="M0 0 C0.33 0.66 0.66 1.32 1 2 C-0.24970939 4.96359654 -1.89646189 7.56899818 -4 10 C-6.8125 10.5 -6.8125 10.5 -9 10 C-8.06409496 8.8944811 -7.12620142 7.79064547 -6.1875 6.6875 C-5.66542969 6.07261719 -5.14335937 5.45773438 -4.60546875 4.82421875 C-3.12827531 3.14575321 -1.59960869 1.56117966 0 0 Z " fill="#0F5085" transform="translate(191,65)"/>
<path d="M0 0 C1.98 0 3.96 0 6 0 C6 0.66 6 1.32 6 2 C6.99 2 7.98 2 9 2 C9 2.66 9 3.32 9 4 C5.7 4 2.4 4 -1 4 C-0.67 2.68 -0.34 1.36 0 0 Z " fill="#D6AA46" transform="translate(84,74)"/>
<path d="M0 0 C1.9375 0.8125 1.9375 0.8125 4 2 C5 5 5 5 4 8 C3.34 8 2.68 8 2 8 C2 7.34 2 6.68 2 6 C1.01 6 0.02 6 -1 6 C-1.66 4.68 -2.32 3.36 -3 2 C-2.01 1.34 -1.02 0.68 0 0 Z " fill="#D5AB45" transform="translate(113,55)"/>
<path d="M0 0 C1.32 0 2.64 0 4 0 C4 0.66 4 1.32 4 2 C4.66 2.33 5.32 2.66 6 3 C4.875 4.5625 4.875 4.5625 3 6 C-0.1875 5.6875 -0.1875 5.6875 -3 5 C-1.75 2.5 -1.75 2.5 0 0 Z " fill="#195A8C" transform="translate(143,42)"/>
<path d="M0 0 C1.32 0.33 2.64 0.66 4 1 C3.01 1 2.02 1 1 1 C1 1.66 1 2.32 1 3 C2.98 3 4.96 3 7 3 C6.67 4.32 6.34 5.64 6 7 C0.25 5.25 0.25 5.25 -2 3 C-1.34 3 -0.68 3 0 3 C0 2.01 0 1.02 0 0 Z " fill="#185580" transform="translate(74,78)"/>
<path d="M0 0 C2.97 0.99 5.94 1.98 9 3 C9 3.66 9 4.32 9 5 C7.1875 6.6875 7.1875 6.6875 5 8 C4.01 7.67 3.02 7.34 2 7 C2.66 6.01 3.32 5.02 4 4 C2.68 3.67 1.36 3.34 0 3 C0 2.01 0 1.02 0 0 Z " fill="#D73334" transform="translate(175,63)"/>
<path d="M0 0 C2.64 0.33 5.28 0.66 8 1 C6.63016497 4.16115776 6.0109362 4.9927092 3 7 C3 6.01 3 5.02 3 4 C2.34 3.67 1.68 3.34 1 3 C1.33 2.67 1.66 2.34 2 2 C1.34 1.34 0.68 0.68 0 0 Z " fill="#D9C2C2" transform="translate(137,57)"/>
<path d="M0 0 C0.66 0.33 1.32 0.66 2 1 C1.265611 2.32129824 0.51183106 3.63183171 -0.25 4.9375 C-0.66765625 5.66839844 -1.0853125 6.39929687 -1.515625 7.15234375 C-3.25593617 9.31857318 -4.29561004 9.63594751 -7 10 C-5.63055898 7.05043472 -4.12169591 4.47531189 -2 2 C-1.34 2 -0.68 2 0 2 C0 1.34 0 0.68 0 0 Z " fill="#A0986B" transform="translate(153,39)"/>
<path d="M0 0 C1.65 0 3.3 0 5 0 C4.01 0.495 4.01 0.495 3 1 C3.33 2.65 3.66 4.3 4 6 C1.03 5.505 1.03 5.505 -2 5 C-2 4.01 -2 3.02 -2 2 C-1.34 2 -0.68 2 0 2 C0 1.34 0 0.68 0 0 Z " fill="#D92F2F" transform="translate(122,45)"/>
<path d="M0 0 C3.81684076 -0.08876374 7.30704038 -0.02582212 11 1 C11.66 1.66 12.32 2.32 13 3 C11.20841511 3.02696365 9.41671527 3.04637917 7.625 3.0625 C6.62726563 3.07410156 5.62953125 3.08570312 4.6015625 3.09765625 C2 3 2 3 0 2 C0 1.34 0 0.68 0 0 Z " fill="#D5AA48" transform="translate(148,82)"/>
<path d="M0 0 C0.66 0 1.32 0 2 0 C1.8125 1.8125 1.8125 1.8125 1 4 C-2.34811134 6.53370588 -3.70124217 7 -8 7 C-7.67 6.01 -7.34 5.02 -7 4 C-3.4375 2.8125 -3.4375 2.8125 0 2 C0 1.34 0 0.68 0 0 Z " fill="#978E5A" transform="translate(153,75)"/>
<path d="M0 0 C0.66 0.99 1.32 1.98 2 3 C0.38007835 3.86375896 -1.24611861 4.71575854 -2.875 5.5625 C-4.23238281 6.27599609 -4.23238281 6.27599609 -5.6171875 7.00390625 C-6.40351562 7.33261719 -7.18984375 7.66132812 -8 8 C-8.66 7.67 -9.32 7.34 -10 7 C-6.7 4.69 -3.4 2.38 0 0 Z " fill="#B9A86C" transform="translate(78,103)"/>
<path d="M0 0 C4.8274799 1.41292095 8.7162359 3.42974154 13 6 C12.01 6.66 11.02 7.32 10 8 C8.33055479 6.85821872 6.6645052 5.71147095 5 4.5625 C4.071875 3.92441406 3.14375 3.28632812 2.1875 2.62890625 C1.465625 2.09136719 0.74375 1.55382813 0 1 C0 0.67 0 0.34 0 0 Z " fill="#AEA26D" transform="translate(67,41)"/>
<path d="M0 0 C0.90492187 0.02320312 1.80984375 0.04640625 2.7421875 0.0703125 C4.10730469 0.09738281 4.10730469 0.09738281 5.5 0.125 C6.19867188 0.14820312 6.89734375 0.17140625 7.6171875 0.1953125 C7.2871875 1.1853125 6.9571875 2.1753125 6.6171875 3.1953125 C2.9871875 2.8653125 -0.6428125 2.5353125 -4.3828125 2.1953125 C-2.3828125 0.1953125 -2.3828125 0.1953125 0 0 Z " fill="#1D5B8A" transform="translate(66.3828125,90.8046875)"/>
<path d="M0 0 C2.97 0.99 5.94 1.98 9 3 C9 3.33 9 3.66 9 4 C6.03 4 3.06 4 0 4 C0 2.68 0 1.36 0 0 Z " fill="#C7CED5" transform="translate(175,59)"/>
<path d="M0 0 C0.99 0.33 1.98 0.66 3 1 C1.35 2.98 -0.3 4.96 -2 7 C-2.6875 5.1875 -2.6875 5.1875 -3 3 C-1.5625 1.25 -1.5625 1.25 0 0 Z " fill="#D0D5DD" transform="translate(108,106)"/>
<path d="M0 0 C0.66 0.99 1.32 1.98 2 3 C1.67 3.99 1.34 4.98 1 6 C1 5.34 1 4.68 1 4 C-1.64 4.66 -4.28 5.32 -7 6 C-6.67 5.01 -6.34 4.02 -6 3 C-5.195625 2.87625 -4.39125 2.7525 -3.5625 2.625 C-2.716875 2.41875 -1.87125 2.2125 -1 2 C-0.67 1.34 -0.34 0.68 0 0 Z " fill="#ABBDCE" transform="translate(129,67)"/>
<path d="M0 0 C0.66 0.33 1.32 0.66 2 1 C0.7391988 2.03319813 -0.53403258 3.05124379 -1.8125 4.0625 C-2.87404297 4.91521484 -2.87404297 4.91521484 -3.95703125 5.78515625 C-4.63121094 6.18605469 -5.30539063 6.58695313 -6 7 C-6.99 6.67 -7.98 6.34 -9 6 C-6.03 4.02 -3.06 2.04 0 0 Z " fill="#B6A469" transform="translate(185,41)"/>
<path d="M0 0 C1.32 0 2.64 0 4 0 C2.63016497 3.16115776 2.0109362 3.9927092 -1 6 C-1.33 5.01 -1.66 4.02 -2 3 C-1.34 2.01 -0.68 1.02 0 0 Z " fill="#D7C1C3" transform="translate(89,107)"/>
<path d="M0 0 C1.98 0 3.96 0 6 0 C5.01 0.66 4.02 1.32 3 2 C3.33 2.66 3.66 3.32 4 4 C2.02 4 0.04 4 -2 4 C-1.34 2.68 -0.68 1.36 0 0 Z " fill="#DCA14A" transform="translate(151,88)"/>
<path d="M0 0 C2.1875 0.3125 2.1875 0.3125 4 1 C1.03 3.475 1.03 3.475 -2 6 C-2.33 5.01 -2.66 4.02 -3 3 C-1.75 1.4375 -1.75 1.4375 0 0 Z " fill="#CCD3D7" transform="translate(146,70)"/>
<path d="M0 0 C-2.33623775 1.82518575 -4.08898065 3.01010373 -7.11328125 2.9765625 C-9.08537617 2.71735287 -11.04463697 2.36455921 -13 2 C-13 1.67 -13 1.34 -13 1 C-11.58622218 0.63447197 -10.16879424 0.28304505 -8.75 -0.0625 C-7.96109375 -0.25972656 -7.1721875 -0.45695312 -6.359375 -0.66015625 C-3.89605178 -1.01497267 -2.34395868 -0.76877544 0 0 Z " fill="#C6A85A" transform="translate(99,67)"/>
<path d="M0 0 C0.928125 0.20625 1.85625 0.4125 2.8125 0.625 C1.8225 2.11 1.8225 2.11 0.8125 3.625 C-1.4975 2.965 -3.8075 2.305 -6.1875 1.625 C-3.1875 -0.375 -3.1875 -0.375 0 0 Z " fill="#D83436" transform="translate(94.1875,114.375)"/>
<path d="M0 0 C2.51083114 1.25541557 2.87125446 2.50063488 4 5 C2.35 4.67 0.7 4.34 -1 4 C-1 4.66 -1 5.32 -1 6 C-1.66 5.67 -2.32 5.34 -3 5 C-2.625 3.0625 -2.625 3.0625 -2 1 C-1.34 0.67 -0.68 0.34 0 0 Z " fill="#A1935E" transform="translate(98,75)"/>
<path d="M0 0 C0.33 0.99 0.66 1.98 1 3 C0 5 0 5 -3.0625 6.125 C-4.031875 6.41375 -5.00125 6.7025 -6 7 C-4.02 4.69 -2.04 2.38 0 0 Z " fill="#DEC4C5" transform="translate(143,71)"/>
<path d="M0 0 C0.66 0 1.32 0 2 0 C2.99 1.98 3.98 3.96 5 6 C-0.75 4.25 -0.75 4.25 -3 2 C-2.01 2 -1.02 2 0 2 C0 1.34 0 0.68 0 0 Z " fill="#275877" transform="translate(107,57)"/>
<path d="M0 0 C0.66 0 1.32 0 2 0 C2 0.99 2 1.98 2 3 C1.34 3 0.68 3 0 3 C0 3.99 0 4.98 0 6 C-1.32 5.67 -2.64 5.34 -4 5 C-2.71937515 3.2925002 -1.38232443 1.62626404 0 0 Z " fill="#D7C8C9" transform="translate(120,44)"/>
<path d="M0 0 C0.66 0.33 1.32 0.66 2 1 C-1.5 5.875 -1.5 5.875 -6 7 C-4.02 4.69 -2.04 2.38 0 0 Z " fill="#266094" transform="translate(115,103)"/>
<path d="M0 0 C0 0.66 0 1.32 0 2 C0.66 2.33 1.32 2.66 2 3 C-1.3 2.67 -4.6 2.34 -8 2 C-4.77208445 -0.1519437 -3.71599191 -0.20086443 0 0 Z " fill="#BD9C52" transform="translate(123,80)"/>
<path d="M0 0 C0.66 0 1.32 0 2 0 C2 0.66 2 1.32 2 2 C3.32 2.33 4.64 2.66 6 3 C5.34 3.66 4.68 4.32 4 5 C1.875 4.625 1.875 4.625 0 4 C0 2.68 0 1.36 0 0 Z " fill="#D4AB4A" transform="translate(148,74)"/>
<path d="M0 0 C0.99 1.32 1.98 2.64 3 4 C2.01 4.495 2.01 4.495 1 5 C0.01 4.67 -0.98 4.34 -2 4 C-1.34 2.68 -0.68 1.36 0 0 Z M2 1 C3.32 1.33 4.64 1.66 6 2 C4.68 2.33 3.36 2.66 2 3 C2 2.34 2 1.68 2 1 Z " fill="#0E5288" transform="translate(178,84)"/>
<path d="M0 0 C0.66 0 1.32 0 2 0 C2.66 1.98 3.32 3.96 4 6 C2.35 5.67 0.7 5.34 -1 5 C-0.67 3.35 -0.34 1.7 0 0 Z " fill="#1A5885" transform="translate(104,51)"/>
<path d="M0 0 C1.32 0 2.64 0 4 0 C4 0.99 4 1.98 4 3 C2.02 3.99 2.02 3.99 0 5 C-0.5625 3.0625 -0.5625 3.0625 -1 1 C-0.67 0.67 -0.34 0.34 0 0 Z " fill="#D5D1D6" transform="translate(165,50)"/>
</svg>
